<svg width="117" height="197" viewBox="0 0 117 197" fill="none" xmlns="http://www.w3.org/2000/svg">
<path d="M107.412 149.751C109.146 151.697 111.354 152.51 113.727 153.115C115.355 153.53 116.629 155.868 116.299 157.453C115.906 159.344 113.996 160.734 112.047 160.55C110.3 160.385 108.636 158.574 108.659 156.751C108.689 154.351 108.895 151.935 107.412 149.751ZM93.0636 131.176C93.0636 132.008 92.9236 133.227 93.1039 134.398C93.276 135.515 93.7535 136.591 94.1473 137.667C94.8593 139.611 93.5982 142.146 91.6093 142.706C89.8982 143.187 87.8182 142.286 87.0809 140.744C86.3224 139.157 86.9064 136.884 88.3433 135.861C88.8259 135.518 89.4024 135.269 89.7987 134.848C90.993 133.579 92.1198 132.247 93.0636 131.176ZM93.4946 162.559C92.4129 164.405 92.1475 166.537 92.3967 168.83C92.6355 171.028 90.3063 173.28 88.2885 173.024C86.5007 172.798 84.8563 171.247 84.7496 169.688C84.669 168.745 84.9166 167.803 85.4503 167.021C85.984 166.24 86.7712 165.666 87.6789 165.398C88.1457 165.261 88.6579 165.216 89.0789 164.995C90.591 164.201 92.0729 163.349 93.4946 162.559Z" fill="black"/>
<path d="M91.2388 196.626C91.1658 195.957 91.4394 191.974 92.0993 191.77C94.7413 190.953 95.6716 187.932 94.0212 185.697C93.3795 184.827 92.5844 184.018 92.1684 183.049C91.6849 181.923 91.2983 180.653 91.2882 179.441C91.2148 170.6 91.2529 161.757 91.2337 152.915C91.2321 152.166 91.467 151.823 92.2255 151.603C94.6897 150.889 95.7664 147.562 94.049 145.659C91.8932 143.27 91.1761 140.577 91.2034 137.405C91.305 125.628 91.2435 113.849 91.2433 102.071C91.2433 101.931 91.2444 101.792 91.2438 101.652C91.2372 99.9101 91.2372 99.9094 89.5309 99.909C86.8747 99.9083 84.2175 99.9512 81.5629 99.8873C80.5373 99.8626 80.2469 100.222 80.2509 101.208C80.2801 108.337 80.2015 115.468 80.2955 122.596C80.3318 125.35 79.5427 127.675 77.6789 129.647C75.8371 131.596 76.6367 135.559 79.4729 136.009C80.1399 136.115 80.2726 136.497 80.2716 137.105C80.2556 146.891 80.2695 156.677 80.2442 166.462C80.2388 168.513 79.329 170.241 77.9821 171.732C76.8074 173.032 76.357 174.471 76.9233 176.166C77.3306 177.385 78.1422 178.235 79.4104 178.466C80.1641 178.603 80.2699 178.984 80.2682 179.617C80.2554 184.579 80.2494 191.664 80.2733 196.626L91.2388 196.626ZM0.00395203 70.0501C9.99948 70.0487 19.995 70.0599 29.9905 70.0297C30.8925 70.027 31.415 70.3248 31.9674 71.0451C35.474 75.6179 40.0433 78.5018 45.7958 79.3087C54.3875 80.5138 61.2381 77.4692 66.5344 70.686C66.8377 70.3342 67.2672 70.1158 67.7302 70.0783C70.3503 70.0247 72.9721 70.0649 75.5931 70.0443C76.2919 70.0389 76.5919 70.2554 76.5882 71.0096C76.5554 77.6147 76.5521 84.2199 76.5437 90.8251C76.5428 91.5418 76.6436 92.2865 75.5135 92.1982C75.3645 92.1866 75.0465 92.6658 75.03 92.9316C74.9692 93.9065 75.0387 94.8891 74.9896 95.8653C74.9482 96.6883 75.26 96.9484 76.0845 96.9389C79.5091 96.8995 82.9344 96.9231 86.3595 96.9233C89.4001 96.9234 92.4411 96.8949 95.481 96.9414C96.3305 96.9545 96.5887 96.6702 96.5366 95.8551C96.4742 94.8803 96.5681 93.8939 96.4767 92.9236C96.4506 92.6464 96.0115 92.1859 95.7699 92.191C94.8617 92.2104 94.8631 91.6895 94.864 91.0373C94.8736 83.4534 94.8756 75.8694 94.87 68.2854C94.8722 59.9438 88.611 52.7884 80.3092 51.9185C77.1272 51.585 73.8944 51.7021 70.6845 51.6916C69.84 51.6888 69.5023 51.4179 69.2027 50.6336C67.1001 45.129 63.3645 41.0968 58.017 38.6094C57.3001 38.276 57.0152 37.9136 57.0489 37.1322C57.1062 35.8066 57.0322 34.4758 57.0729 33.149C57.0964 32.3839 56.8426 32.1099 56.0495 32.1337C54.5756 32.1779 54.5742 32.132 54.5721 30.6555C54.5716 30.3409 54.5713 30.0264 54.5712 29.7118C54.5679 27.9966 54.5632 28.0232 52.8928 27.7307C52.7369 27.6721 52.5982 27.5755 52.4892 27.4496C52.3801 27.3238 52.3043 27.1727 52.2685 27.0101C52.2109 25.4045 52.2041 23.7944 52.2689 22.1894C52.2996 22.0002 52.3734 21.8205 52.4846 21.6644C52.5958 21.5083 52.7415 21.3799 52.9102 21.289C56.0891 19.9729 58.2985 17.7568 59.4967 14.514C59.5896 14.35 59.7193 14.2098 59.8756 14.1043C60.0318 13.9988 60.2104 13.931 60.3973 13.9061C61.6164 13.8353 62.8449 13.9288 64.0642 13.8593C64.8042 13.8172 65.1708 14.0709 65.5082 14.7268C67.1203 17.8606 69.7373 19.4987 73.2533 19.535C77.4057 19.5778 81.1878 16.2151 81.6483 12.1931C82.1667 7.66424 79.4271 3.63349 75.1518 2.63498C73.2684 2.17694 71.2849 2.37922 69.5327 3.20801C67.7806 4.03679 66.366 5.44187 65.5253 7.18838C65.2057 7.83476 64.845 8.13512 64.0912 8.09353C62.8717 8.02624 61.6425 8.12481 60.4246 8.04367C60.2252 8.0115 60.0357 7.93411 59.8707 7.81741C59.7058 7.70072 59.5697 7.54781 59.473 7.37042C57.6501 2.76836 54.2335 0.220933 49.3588 0.0102326C44.7507 -0.188943 40.6354 2.53444 38.9528 6.87857C38.5764 7.8505 38.108 8.16437 37.1332 8.09196C36.1214 8.02788 35.1066 8.02616 34.0945 8.08681C33.3742 8.12234 33.0118 7.88006 32.6601 7.205C30.9729 3.96644 28.2438 2.25573 24.5913 2.43414C21.0885 2.60524 18.5073 4.42409 17.123 7.66371C15.2797 11.9773 17.2037 16.7494 21.4689 18.7547C25.62 20.7064 30.5178 18.9774 32.6716 14.7405C33.0088 14.0771 33.3477 13.8137 34.0908 13.857C35.2751 13.926 36.4674 13.9086 37.654 13.8645C38.2883 13.8409 38.5589 14.0822 38.7788 14.6718C40.0264 18.016 42.3706 20.2484 45.7355 21.4503C45.9167 21.5368 46.075 21.6645 46.1979 21.8233C46.3208 21.982 46.4047 22.1673 46.443 22.3644C46.5177 23.8634 46.4476 25.369 46.4865 26.8708C46.5046 27.5669 46.2408 27.7668 45.5694 27.7772C43.5343 27.8087 43.5479 27.8337 43.5343 29.8564C43.5294 30.5768 43.7046 31.5504 43.3209 31.9457C42.9347 32.3435 41.9559 32.1659 41.0312 32.2618C41.0312 33.5136 40.9361 34.7966 41.056 36.0593C41.1966 37.5412 40.7873 38.3355 39.3156 39.0634C34.2865 41.5507 30.8303 45.5681 28.8953 50.8502C28.6795 51.4393 28.3941 51.6766 27.7662 51.6757C18.3648 51.6628 9.4006 51.6536 -0.000694275 51.6849L0.00395203 70.0501ZM83.1218 193.851C83.1859 191.302 83.2588 188.754 83.3547 186.207C83.4492 183.696 83.582 181.186 83.6866 178.675C83.7113 178.084 83.6902 177.49 83.6902 176.897C82.6973 177.631 81.9032 178.357 80.6454 178.162V168.9C81.4851 170.144 82.4552 171.581 83.4253 173.018L83.8608 172.87C84.4823 154.9 85.1038 136.929 85.7253 118.959L85.7484 118.955C86.4034 141.331 87.0584 163.707 87.7134 186.083C87.8767 186.135 88.0399 186.187 88.2031 186.24C89.1384 184.812 90.0736 183.384 90.9183 182.094C90.9183 184.834 90.9015 187.769 90.9292 190.704C90.9369 191.515 90.5942 191.756 89.9134 191.442C89.2463 191.135 88.6316 190.714 87.8686 190.27C87.8686 190.82 87.8551 191.292 87.8715 191.762C87.9019 192.634 87.9041 193.51 88.0024 194.374C88.1117 195.335 87.7061 195.614 86.8095 195.533L83.1218 193.851ZM90.839 142.063V151.432C89.4076 151.365 88.4246 150.799 87.927 149.515C87.4021 148.16 87.4755 146.887 88.3628 145.669C89.2949 144.388 90.159 143.059 90.839 142.063ZM80.6032 126.359C81.3991 127.516 82.2709 128.843 83.205 130.125C84.5921 132.029 83.8246 134.907 81.7237 135.635C80.9053 135.919 80.579 135.742 80.5902 134.823C80.6255 131.928 80.6032 129.032 80.6032 126.359Z" fill="#40A8C4"/>
<path d="M107.412 149.751C108.895 151.935 108.689 154.351 108.659 156.751C108.636 158.574 110.3 160.385 112.047 160.55C113.996 160.734 115.906 159.344 116.299 157.453C116.629 155.868 115.355 153.53 113.727 153.115C111.354 152.51 109.146 151.697 107.412 149.751Z" fill="white"/>
<path d="M93.0632 131.176C92.1194 132.247 90.9927 133.579 89.7984 134.848C89.4021 135.269 88.8255 135.518 88.343 135.861C86.9061 136.884 86.3221 139.157 87.0805 140.744C87.8179 142.286 89.8978 143.187 91.609 142.706C93.5979 142.146 94.8589 139.611 94.1469 137.667C93.7531 136.591 93.2757 135.515 93.1036 134.398C92.9232 133.227 93.0632 132.008 93.0632 131.176Z" fill="white"/>
<path d="M93.4941 162.559C92.0725 163.349 90.5905 164.201 89.0784 164.995C88.6574 165.216 88.1453 165.261 87.6784 165.398C86.7708 165.666 85.9836 166.24 85.4499 167.021C84.9161 167.803 84.6686 168.745 84.7491 169.688C84.8558 171.247 86.5003 172.797 88.2881 173.024C90.3058 173.279 92.6351 171.028 92.3962 168.83C92.1471 166.537 92.4124 164.405 93.4941 162.559Z" fill="white"/>
</svg>
