<svg width="113" height="214" viewBox="0 0 113 214" fill="none" xmlns="http://www.w3.org/2000/svg">
<path d="M15.5536 65.8534L14.5214 52.3801C14.5214 52.3801 13.6424 52.795 13.6424 51.2423C13.6424 49.6895 16.4751 46.2974 16.4751 46.2974C16.4751 46.2974 21.9754 37.3127 23.3994 36.4762C24.8233 35.6396 29.5467 35.1488 29.5467 35.1488L28.383 28.6048L34.0293 20.0976C34.0293 20.0976 32.2699 19.934 31.2061 20.0976C30.1423 20.2612 25.1709 25.0263 25.1709 25.0263L19.7075 30.8526C19.7075 30.8526 13.9466 34.2054 9.07155 40.0787C4.19652 45.952 4.55145 45.4319 2.30318 49.832C0.0549126 54.2321 1.15763 57.6553 2.30318 60.1125C3.44873 62.5696 4.96916 64.0497 7.40142 65.1209C9.83369 66.1921 15.5536 65.8534 15.5536 65.8534Z" fill="#F5AB8B"/>
<path d="M24.2517 29.4689L30.048 35.893C30.1618 36.0192 30.3203 36.0963 30.4899 36.108C30.6595 36.1197 30.827 36.0651 30.9571 35.9557L39.4382 28.8243C39.5232 28.7529 39.5886 28.6611 39.6284 28.5575C39.6681 28.4539 39.6809 28.3419 39.6656 28.232L38.1486 17.3727C38.1321 17.2547 38.0837 17.1434 38.0087 17.0507C37.9336 16.9581 37.8347 16.8877 37.7226 16.8471C37.6105 16.8065 37.4895 16.7972 37.3725 16.8202C37.2555 16.8432 37.147 16.8977 37.0586 16.9778L24.2982 28.5442C24.1696 28.6608 24.0925 28.8236 24.0837 28.997C24.075 29.1703 24.1354 29.34 24.2517 29.4689Z" fill="#4F4F4F"/>
<path d="M26.382 28.3769L31.3466 33.795C31.4601 33.9188 31.6167 33.9944 31.7842 34.0063C31.9518 34.0182 32.1175 33.9655 32.2473 33.8589L41.0277 26.6523C41.1582 26.5451 41.2424 26.3918 41.2628 26.2242C41.2831 26.0565 41.2381 25.8875 41.137 25.7523L36.3822 19.3918C36.3275 19.3186 36.258 19.2576 36.1783 19.2128C36.0987 19.1679 36.0105 19.1402 35.9194 19.1315C35.8284 19.1227 35.7365 19.133 35.6497 19.1618C35.5629 19.1905 35.4831 19.2371 35.4154 19.2985L26.4251 27.4475C26.3611 27.5056 26.3091 27.5758 26.2723 27.654C26.2354 27.7322 26.2143 27.8169 26.2103 27.9033C26.2063 27.9896 26.2194 28.0759 26.2489 28.1572C26.2784 28.2385 26.3236 28.3132 26.382 28.3769Z" fill="#7DEAF9"/>
<path d="M27.9566 32.4763C27.5755 32.4763 27.2666 32.1675 27.2666 31.7866C27.2666 31.4057 27.5755 31.0969 27.9566 31.0969C28.3376 31.0969 28.6465 31.4057 28.6465 31.7866C28.6465 32.1675 28.3376 32.4763 27.9566 32.4763Z" fill="#EBEAE6"/>
<path d="M45.3036 28.9163H55.6387V48.1641H45.3036V28.9163Z" fill="#E29074"/>
<path d="M37.079 19.3727C37.079 21.3159 36.5542 24.9946 37.4 28.5362C38.7 33.9802 41.0634 37.238 48.6275 37.238C54.4084 37.238 57.8729 33.386 59.6213 28.1222C59.8618 27.3981 61.8998 28.6824 63.3349 26.7486C65.7866 23.4449 64.898 21.6919 64.3569 21.151C63.5888 20.3831 63.1701 20.0894 61.8897 20.3606C60.5315 20.6483 59.1188 21.8688 59.1188 21.4474C59.1188 20.7866 61.0362 19.3928 60.9756 18.789C60.5615 14.6638 60.2144 11.3869 57.007 9.89483C55.1619 9.03653 51.1899 8.89995 48.437 8.89995C44.4117 8.89995 40.7189 7.57129 38.858 9.09039C36.9099 10.6806 37.079 15.3973 37.079 19.3727Z" fill="#F2A381"/>
<path d="M58.5203 213.738H73.8363C73.8363 213.738 74.0713 209.628 73.6274 207.561C73.1835 205.494 71.5542 203.186 71.5542 203.186L60.9001 202.495C60.9001 202.495 58.9501 205.955 58.6541 208.655C58.4759 210.343 58.4312 212.043 58.5203 213.738Z" fill="#7C7B7C"/>
<path d="M58.5202 213.738H73.8363L73.8984 211.582H58.4809L58.5202 213.738Z" fill="#100F0C"/>
<path d="M16.4654 213.738L32.1139 213.781L35.0412 212.321L34.9997 213.743L44.0334 213.738C44.0334 213.738 44.5039 210.421 44.5039 208.076C44.4981 206.6 44.3968 205.126 44.2006 203.663H31.1186C31.1186 203.663 28.4987 205.664 27.0041 206.152C25.5096 206.64 21.4616 205.744 19.3062 206.749C17.1507 207.754 16.7671 209.009 16.519 210.331C16.2709 211.653 16.4654 213.738 16.4654 213.738Z" fill="#7C7B7C"/>
<path d="M29.6846 202.758C30.213 203.663 32.6597 204.656 36.047 205.098C39.4343 205.54 43.4317 204.83 44.1994 203.663C44.9672 202.495 46.9769 122.214 46.9769 122.214L49.567 122.127C49.567 122.127 59.2937 203.07 59.8864 203.663C60.4792 204.255 63.0392 204.542 66.7141 204.542C70.389 204.542 72.0063 204.451 72.795 203.663C73.5837 202.874 68.421 149.107 68.421 149.107L65.1173 106.754L29.9453 106.195C29.9453 106.195 29.1562 201.853 29.6846 202.758Z" fill="#AF6635"/>
<path d="M29.9414 106.856L46.2325 108.02L65.1188 106.753L65.543 101.119L46.9497 102.732L29.5039 100.797L29.9414 106.856Z" fill="#6B3027"/>
<path d="M43.0885 102.607H49.5664V108.02H43.0885V102.607Z" fill="#B7B2AB"/>
<path d="M29.1636 101.759C29.8433 102.438 38.1058 104.02 46.6165 104.02C55.1272 104.02 65.6132 102.205 66.0083 101.436C66.4033 100.666 68.2332 69.0431 69.0894 69.0431C69.9455 69.0431 71.5642 76.012 73.0018 76.2632C74.4393 76.5144 83.7899 69.7225 84.1371 68.4414C84.4842 67.1603 78.7951 56.6334 78.7951 56.6334C78.7951 56.6334 73.8699 48.1261 70.7446 46.2545C67.6193 44.3828 63.9828 44.4143 61.9417 43.9229C59.9006 43.4316 57.1542 40.9146 56.1483 40.9146C55.1424 40.9146 52.0589 46.1797 49.4327 46.1797C46.8065 46.1797 45.144 40.9146 44.4863 40.9146C43.8287 40.9146 41.9879 42.9915 40.4235 43.3965C38.8591 43.8015 36.3182 43.7924 34.1787 44.299C32.0391 44.8056 28.912 46.7809 28.912 46.7809C28.912 46.7809 28.484 101.079 29.1636 101.759Z" fill="#E0E9F0"/>
<path d="M15.6168 66.4708H28.9121V46.781L14.1369 52.1331L15.6168 66.4708Z" fill="#D1DAE0"/>
<path d="M103.7 45.7345C103.7 45.7345 102.02 47.0574 99.6165 48.6882C99.1532 49.0025 99.2762 46.4525 99.2762 45.4403C99.2762 44.6327 99.4394 43.5612 98.7416 43.4995C98.3198 43.4623 97.7535 43.7062 97.4129 45.8791C97.3102 46.5347 96.8898 48.3956 96.7046 49.374C96.6367 49.7323 96.5916 50.0945 96.5698 50.4585C96.5084 51.4812 96.9543 53.1804 95.7597 54.9682C94.8108 56.3883 90.0602 62.1222 90.0602 62.1222C90.0602 62.1222 84.8769 69.9689 84.1532 69.9689C83.4295 69.9689 83.6882 68.4142 83.6882 68.4142L74.3748 75.8247C74.3748 75.8247 77.6524 80.5673 80.6703 81.3431C83.6882 82.1188 86.1924 80.9121 88.7773 79.1882C91.3622 77.4644 96.5357 68.1556 96.5357 68.1556C96.5357 68.1556 100.304 59.5115 101.451 57.7263L107.357 52.9373L107.545 48.2874L105.188 46.2211L103.7 45.7345" fill="#F2A381"/>
<path d="M59.148 21.5196C59.3683 21.64 61.3286 20.4726 61.8889 20.3605C62.4492 20.2485 63.3127 20.3654 63.3127 20.3654C63.3127 20.3654 63.3149 19.5483 63.9211 17.3088C64.5272 15.0692 64.3711 15.5423 64.7311 13.5448C65.0912 11.5472 64.9679 11.1365 64.9679 11.1365L56.1457 7.00354L57.0957 8.41515C56.204 10.0298 55.9778 11.9285 56.4653 13.7073C57.0761 15.9033 58.3277 16.1836 58.616 18.1042C58.9044 20.0249 58.9278 21.3991 59.148 21.5196Z" fill="#7F3E37"/>
<path d="M37.1271 14.8166C37.1271 14.8166 38.453 10.2668 38.7003 9.67454C39.2713 9.31956 44.558 8.43804 50.4722 9.05897C56.3864 9.67989 64.9688 11.1366 64.9688 11.1366C64.9688 11.1366 64.4516 5.61668 59.8499 2.78596C55.2483 -0.0447568 47.4915 -1.31225 41.0893 1.86598C37.1138 3.83949 37.1271 8.1494 37.1271 8.1494V14.8166Z" fill="#6B3027"/>
<path d="M53.8535 21.6462C53.8535 21.2185 53.6835 20.8083 53.381 20.5058C53.0784 20.2034 52.6681 20.0334 52.2402 20.0334C51.8123 20.0334 51.4019 20.2034 51.0994 20.5058C50.7968 20.8083 50.6268 21.2185 50.6268 21.6462C50.6268 22.5369 51.3491 23.0056 52.2402 23.0056C53.1312 23.0056 53.8535 22.5369 53.8535 21.6462Z" fill="#44230F"/>
<path d="M49.409 20.4828C49.6293 20.3825 49.8596 20.3057 50.0959 20.2534L50.2737 20.2124L50.4541 20.1836C50.573 20.1588 50.6953 20.1522 50.8159 20.1389C51.3018 20.1006 51.7905 20.1193 52.272 20.1946L52.6334 20.2578C52.7529 20.284 52.8712 20.3173 52.9907 20.3452C53.1109 20.3713 53.2294 20.4044 53.3456 20.4445L53.698 20.5571C53.9312 20.6379 54.1586 20.7368 54.392 20.8229C54.6192 20.9237 54.8431 21.0328 55.0745 21.1306L55.0805 21.1331C55.1006 21.1416 55.123 21.1422 55.1435 21.1349C55.164 21.1276 55.181 21.1129 55.1911 21.0936C55.2013 21.0744 55.2038 21.052 55.1983 21.031C55.1928 21.01 55.1796 20.9918 55.1613 20.9801C54.9474 20.8429 54.7276 20.7137 54.5082 20.5822L54.1639 20.4128C54.0477 20.3589 53.9356 20.2952 53.8142 20.2529C53.5765 20.1539 53.3333 20.0688 53.0857 19.998C52.9614 19.9635 52.8379 19.925 52.7118 19.8969L52.3299 19.8254C51.8159 19.7406 51.2922 19.7333 50.7761 19.8038C50.2546 19.8691 49.7546 20.0516 49.3137 20.3375C49.2958 20.3497 49.2831 20.3683 49.2782 20.3894C49.2733 20.4105 49.2765 20.4327 49.2871 20.4516C49.2978 20.4705 49.3152 20.4846 49.3359 20.4913C49.3565 20.498 49.3789 20.4966 49.3986 20.4876L49.409 20.4828Z" fill="#6B3027"/>
<path d="M43.5273 21.6962C43.5273 21.2685 43.3574 20.8583 43.0548 20.5559C42.7522 20.2534 42.3419 20.0835 41.914 20.0835C41.4861 20.0835 41.0757 20.2534 40.7732 20.5559C40.4706 20.8583 40.3006 21.2685 40.3006 21.6962C40.3006 22.5869 41.023 23.0556 41.914 23.0556C42.805 23.0556 43.5273 22.5869 43.5273 21.6962Z" fill="#44230F"/>
<path d="M39.1259 21.0022C39.3265 20.8668 39.5408 20.7527 39.7652 20.662L39.9336 20.592L40.1068 20.5336C40.2199 20.4895 40.3394 20.4626 40.4561 20.4295C40.9289 20.311 41.4139 20.2483 41.9013 20.2427L42.2681 20.2449C42.3904 20.2509 42.5125 20.2641 42.635 20.2717C42.7578 20.2775 42.8802 20.2905 43.0015 20.3108L43.3677 20.3633C43.6111 20.4042 43.8518 20.4639 44.0962 20.5101C44.337 20.5718 44.5759 20.6422 44.8204 20.7002L44.8267 20.7017C44.8479 20.7067 44.8701 20.7036 44.8891 20.693C44.9081 20.6824 44.9224 20.665 44.9292 20.6444C44.936 20.6237 44.9348 20.6013 44.9259 20.5815C44.9169 20.5617 44.9009 20.5459 44.8809 20.5374C44.6472 20.4376 44.409 20.3468 44.1707 20.2534L43.8031 20.1436C43.6796 20.1097 43.5585 20.0656 43.4317 20.044C43.1809 19.9858 42.9269 19.9423 42.671 19.9136C42.5426 19.9002 42.4145 19.8828 42.2854 19.876L41.897 19.8689C41.3761 19.8706 40.8584 19.9504 40.3611 20.1056C39.8577 20.2566 39.3951 20.5196 39.0078 20.8747C38.9922 20.8898 38.9827 20.9101 38.9814 20.9318C38.98 20.9534 38.9869 20.9748 39.0006 20.9916C39.0142 21.0085 39.0337 21.0196 39.0552 21.0227C39.0767 21.0259 39.0985 21.0208 39.1165 21.0086L39.1259 21.0022Z" fill="#6B3027"/>
<path d="M49.8899 16.5203C50.4021 16.4387 50.8984 16.3629 51.3828 16.3182C51.8558 16.2698 52.3323 16.2645 52.8063 16.3025C53.2705 16.3425 53.7264 16.4497 54.1597 16.621C54.6154 16.8096 55.0489 17.048 55.4522 17.3319L55.4545 17.3334C55.4736 17.3461 55.4963 17.3521 55.5192 17.3505C55.542 17.3489 55.5637 17.3397 55.5808 17.3245C55.5979 17.3092 55.6094 17.2887 55.6135 17.2661C55.6177 17.2436 55.6142 17.2203 55.6037 17.2C55.3447 16.7066 54.9615 16.2892 54.4919 15.989C54.0102 15.6821 53.4635 15.4919 52.8953 15.4335C52.3387 15.3718 51.7753 15.4221 51.2383 15.5815C50.7082 15.727 50.2163 15.9866 49.7972 16.3422C49.7805 16.3569 49.7689 16.3767 49.7644 16.3985C49.7598 16.4204 49.7625 16.4431 49.7719 16.4633C49.7814 16.4835 49.7971 16.5001 49.8168 16.5107C49.8364 16.5212 49.859 16.5251 49.8811 16.5217L49.8899 16.5203Z" fill="#6B3027"/>
<path d="M44.0803 16.3422C43.6612 15.9866 43.1693 15.727 42.6392 15.5815C42.1022 15.4221 41.5388 15.3718 40.9822 15.4335C40.414 15.4919 39.8673 15.6821 39.3856 15.989C38.916 16.2892 38.5328 16.7066 38.2738 17.2C38.2633 17.2203 38.2598 17.2436 38.264 17.2661C38.2681 17.2886 38.2796 17.3091 38.2967 17.3244C38.3137 17.3397 38.3354 17.3489 38.3582 17.3505C38.381 17.3522 38.4038 17.3462 38.4229 17.3335L38.4253 17.3319C38.8286 17.048 39.2621 16.8096 39.7178 16.621C40.1511 16.4497 40.607 16.3424 41.0712 16.3025C41.5452 16.2645 42.0217 16.2698 42.4947 16.3182C42.9791 16.3629 43.4754 16.4387 43.9876 16.5203L43.9958 16.5216C44.0092 16.5237 44.0228 16.5232 44.036 16.5201C44.0492 16.5169 44.0617 16.5112 44.0727 16.5032C44.0836 16.4953 44.093 16.4852 44.1001 16.4737C44.1071 16.4621 44.1119 16.4493 44.114 16.4359C44.1167 16.4187 44.115 16.4011 44.1091 16.3847C44.1032 16.3684 44.0933 16.3537 44.0803 16.3422Z" fill="#6B3027"/>
<path d="M42.2714 29.4205C42.2714 29.4205 42.3809 29.6263 42.5868 29.9363C43.194 30.8534 44.6456 32.6874 46.5845 32.7681C46.6445 32.7707 46.7096 32.7733 46.7722 32.7733C49.3627 32.7733 50.9159 30.5043 51.0437 30.3115C51.0488 30.3037 51.0462 29.4205 51.0462 29.4205H42.2714Z" fill="#6C110F"/>
<path d="M46.5858 32.7682C46.6457 32.7708 46.7108 32.7735 46.7734 32.7735C49.3639 32.7735 50.9172 30.5044 51.0449 30.3116C50.9224 30.3038 50.7998 30.2986 50.6747 30.2986C48.6264 30.2986 46.9245 31.3641 46.5858 32.7682Z" fill="#CD444B"/>
<path d="M42.2728 29.4205C42.2728 29.4205 42.3822 29.6263 42.5881 29.9363H50.1484V29.4205H42.2728Z" fill="#FFF1E7"/>
<path d="M35.0602 211.626H44.2949L44.032 213.738L34.9983 213.743L35.0602 211.626Z" fill="#100F0C"/>
<path d="M35.0422 212.543L35.0625 211.626H16.3605L16.4663 213.738L32.1149 213.781L35.0422 212.543Z" fill="#100F0C"/>
<path d="M107.107 49.3046L111.999 42.8085C112.114 42.6555 112.167 42.4648 112.149 42.2742C112.13 42.0835 112.04 41.9069 111.898 41.7792C111.755 41.6515 111.569 41.582 111.378 41.5845C111.186 41.5871 111.002 41.6614 110.863 41.7929L104.947 47.3728C104.666 47.6374 104.502 48.0026 104.491 48.388C104.48 48.7734 104.622 49.1475 104.887 49.428C105.152 49.7085 105.517 49.8723 105.902 49.8835C106.288 49.8947 106.662 49.7524 106.943 49.4878C107.002 49.4311 107.057 49.3699 107.107 49.3046Z" fill="#F2A381"/>
<path d="M103.327 47.8688L106.97 43.9107L108.416 41.5159" fill="#F2A381"/>
<path d="M104.393 48.8502L107.623 44.5129L107.73 44.3704L108.983 41.8589C109.057 41.7093 109.073 41.5372 109.026 41.3767C108.98 41.2162 108.874 41.0791 108.731 40.9928C108.588 40.9064 108.418 40.8771 108.254 40.9106C108.09 40.9442 107.945 41.0381 107.847 41.1738L106.208 43.4519L106.315 43.3094L102.26 46.8885C101.97 47.1442 101.794 47.5044 101.77 47.89C101.746 48.2755 101.876 48.6548 102.132 48.9444C102.387 49.234 102.748 49.4101 103.134 49.4341C103.519 49.458 103.899 49.3279 104.188 49.0722C104.263 49.0051 104.332 48.9307 104.393 48.8502Z" fill="#F2A381"/>
<path d="M104.74 50.3435L108.151 48.781L111.562 45.3955" fill="#F2A381"/>
<path d="M105.342 51.6606L108.611 49.7858L108.781 49.6882C108.837 49.6559 108.887 49.6143 108.929 49.5654L112.064 45.9019C112.181 45.7653 112.243 45.5897 112.236 45.41C112.229 45.2304 112.155 45.0598 112.028 44.9322C111.902 44.8046 111.732 44.7294 111.552 44.7214C111.372 44.7134 111.196 44.7734 111.059 44.8892L107.371 47.9969L107.69 47.7764L104.135 49.0266C103.771 49.1546 103.473 49.422 103.306 49.7699C103.139 50.1178 103.117 50.5177 103.245 50.8817C103.373 51.2456 103.641 51.5438 103.989 51.7106C104.337 51.8774 104.737 51.8992 105.101 51.7711C105.184 51.7412 105.265 51.7042 105.342 51.6606Z" fill="#F2A381"/>
<path d="M103.872 53.68L106.739 52.1176L111.221 48.7319" fill="#F2A381"/>
<path d="M104.567 54.9518L107.232 53.0193L107.359 52.937L111.587 49.0841C111.69 48.9948 111.754 48.8683 111.764 48.7322C111.774 48.5961 111.73 48.4615 111.641 48.3578C111.543 48.2519 111.411 48.1831 111.268 48.1632C111.125 48.1433 110.98 48.1735 110.856 48.2486L106.12 51.2979L106.248 51.2156L103.179 52.408C103 52.4775 102.837 52.5815 102.698 52.7141C102.559 52.8467 102.448 53.0054 102.371 53.181C102.293 53.3566 102.251 53.5458 102.247 53.7376C102.243 53.9295 102.276 54.1203 102.346 54.2992C102.416 54.478 102.52 54.6414 102.653 54.78C102.785 54.9186 102.944 55.0297 103.12 55.107C103.296 55.1842 103.485 55.2261 103.677 55.2302C103.869 55.2343 104.06 55.2006 104.238 55.1309C104.355 55.0849 104.465 55.0248 104.567 54.9518Z" fill="#F2A381"/>
</svg>
