<svg width="95" height="168" viewBox="0 0 95 168" fill="none" xmlns="http://www.w3.org/2000/svg">
<path d="M58.7353 23.184C60.1903 25.2552 55.7492 26.9106 56.682 28.7506C57.9446 31.2411 56.1366 27.6986 58.3258 27.6986C60.705 27.6986 58.3185 31.3496 61.3504 30.5917C63.7175 29.9999 66.216 26.1847 66.216 23.9507C66.216 21.1662 67.1348 14.8488 65.2938 13.0077C63.5127 11.2266 63.838 13.8906 61.8107 13.8906C60.1597 13.8906 58.3478 12.1018 57.1609 13.6167C55.6113 15.5946 57.0108 20.7289 58.7353 23.184Z" fill="#6B3027"/>
<path d="M31.4176 14.4461C31.4176 14.4461 30.0248 17.2665 39.4657 17.8666C48.9066 18.4666 39.4598 13.7091 39.4598 13.7091L34.768 13.307L31.4176 14.4461Z" fill="#AF6635"/>
<path d="M50.1716 28.4954H59.1348V46.1229H50.1716V28.4954Z" fill="#F2A381"/>
<path d="M39.6997 23.7547C39.6997 28.4363 42.4755 36.0481 49.265 36.0481C52.5014 36.0481 56.7456 34.6586 59.6378 31.8052C60.7525 30.7054 60.8053 28.6325 61.9097 27.7819C64.1543 26.0531 65.5664 24.6794 65.5664 22.3738C65.5664 21.4144 64.587 19.2333 63.1849 19.2333C60.1299 19.2333 60.5457 23.9138 60.0303 23.1838C59.7521 22.7898 58.9924 23.6604 58.7356 23.1838C57.971 21.5264 57.4627 19.7623 57.2282 17.9522C57.0005 15.6565 57.4778 13.8961 56.943 12.8595C55.6369 10.3281 53.5989 11.4612 51.1174 11.4612C47.4317 11.4612 42.8959 8.89222 40.6427 11.4612C38.7452 13.6247 39.6997 20.6509 39.6997 23.7547Z" fill="#FFB088"/>
<path d="M6.21359 56.2286L26.6348 52.3348L22.5293 44.5001L2.62258 49.5191L6.21359 56.2286Z" fill="#F2A381"/>
<path d="M3.64082 167.552H18.9267C18.9267 167.552 20.3769 165.901 20.8845 165.901C21.392 165.901 21.0973 167.552 21.0973 167.552H29.4785V164.249H3.43444L3.64082 167.552Z" fill="#5B4039"/>
<path d="M3.4601 165.071H17.8194L24.1334 164.409L27.5195 162.296L28.9565 159.28C28.3961 157.767 28.2088 156.142 28.4106 154.542C28.5734 153.284 29.7313 151.083 30.159 149.121C30.4419 147.8 30.5113 146.441 30.3648 145.097L15.71 145.002C15.71 145.002 17.1479 152.627 16.2106 154.877C15.2734 157.128 13.8076 158.302 11.8418 158.835C9.87595 159.368 5.45609 158.969 4.86546 158.969C4.27482 158.969 3.05276 159.47 3.05276 161.71C3.05276 163.951 3.4601 165.071 3.4601 165.071Z" fill="#7C7B7C"/>
<path d="M28.6237 158.207C28.6237 158.207 25.2059 160.779 24.3893 164.249H29.4793C29.7727 163.368 29.8509 162.43 29.7076 161.512C29.4971 160.367 29.1325 159.255 28.6237 158.207Z" fill="#565456"/>
<path d="M80.2135 143.325L71.6309 146.373L75.9222 155.8L83.769 152.196L88.5508 145.002L80.2135 143.325Z" fill="#F38F70"/>
<path d="M82.8287 165.046C83.2078 166.27 83.49 166.514 83.7474 166.771C84.0048 167.028 85.8724 167.618 87.3425 167.028C88.8126 166.439 92.2718 160.707 93.0375 157.389C93.8031 154.072 93.2175 149.398 93.2175 149.398L91.8265 149.224L92.8684 145.818L87.4881 140.319C87.4881 140.319 86.5011 140.919 84.3553 141.452C82.2094 141.986 78.8357 141.539 78.8357 141.539L79.766 154.008C79.766 154.008 83.1064 154.222 84.1686 155.284C85.2307 156.346 85.457 156.575 85.457 157.134C85.457 157.694 83.1248 160.454 82.8287 161.218C82.5325 161.982 82.4495 163.822 82.8287 165.046Z" fill="#7C7B7C"/>
<path d="M91.8462 140.319C91.8462 140.319 87.6627 140.224 87.489 140.319C87.3154 140.413 88.0665 144.886 91.8462 146.198C95.626 147.51 92.6862 141.001 92.6862 141.001L91.8462 140.319Z" fill="#565456"/>
<path d="M86.9236 167.162C86.9236 167.162 89.2561 167.085 89.5895 166.92C89.9229 166.756 91.773 164.439 92.8423 162.147C93.9117 159.855 94.2175 159.077 94.6282 156.439C95.0389 153.8 94.9682 140.603 94.8381 140.319C94.708 140.034 91.8458 140.319 91.8458 140.319C91.8458 140.319 92.0797 154.968 91.7262 156.471C91.5762 157.108 91.1361 159.577 90.1641 161.693C89.2502 163.61 88.1656 165.44 86.9236 167.162Z" fill="#513428"/>
<path d="M38.2741 112.15L37.2829 159.153L37.2663 159.941C37.2458 160.914 37.417 161.881 37.7703 162.787C38.1235 163.694 38.6519 164.522 39.3251 165.224C39.9983 165.926 40.8033 166.489 41.694 166.88C42.5848 167.271 43.5438 167.483 44.5165 167.504C45.4795 167.52 46.4367 167.352 47.3369 167.01L75.9294 155.989C77.538 155.369 78.8421 154.148 79.5654 152.583C80.2888 151.018 80.3746 149.233 79.8048 147.606C79.235 145.979 78.0542 144.638 76.5126 143.866C74.971 143.095 73.1896 142.954 71.5457 143.473L42.3253 152.7L52.3794 160.557L60.0767 114.179C60.5528 111.307 59.8687 108.364 58.175 105.997C56.4813 103.63 53.9166 102.032 51.0451 101.555C48.1735 101.079 45.2302 101.762 42.8626 103.455C40.4949 105.149 38.8968 107.713 38.4197 110.585C38.337 111.103 38.2883 111.626 38.2741 112.15Z" fill="#074999"/>
<path d="M47.2191 88.5023L47.9312 106.467L57.0306 94.3102L40.1231 101.232L41.4121 100.937L21.1044 106.47L20.4249 106.655C18.6621 107.139 17.0901 108.152 15.9209 109.557C14.7518 110.963 14.0417 112.693 13.8866 114.514C13.7738 115.867 13.7024 117.222 13.6285 118.577C13.5646 119.933 13.5043 121.289 13.4625 122.646C13.409 124.002 15.0504 141.852 15.2952 143.06C15.5365 144.203 15.7756 145.346 16.0495 146.486C16.98 150.356 20.7999 152.887 24.6867 152.028C26.2732 151.677 27.6955 150.803 28.7253 149.546C29.7551 148.289 30.3325 146.722 30.3648 145.097C30.3883 143.86 30.3708 142.627 30.3558 141.394C30.3308 140.162 30.3021 138.931 30.255 137.701C30.2197 136.471 30.5596 124.946 30.6553 123.592C30.7628 122.239 30.8516 120.885 30.9369 119.53C31.0121 118.175 23.9086 123.507 23.9086 123.507L64.1721 118.623C66.6358 118.167 68.8716 116.888 70.5129 114.995C72.1541 113.102 73.1033 110.707 73.205 108.203L73.2715 106.467L72.5729 83.47C72.8658 76.0792 47.5121 80.0506 47.2191 87.4414C47.2054 87.7879 47.2068 88.1614 47.2191 88.5023Z" fill="#024CB4"/>
<path d="M39.2912 96.354C39.2912 96.354 43.8538 97.3248 56.0367 97.3248C68.2197 97.3248 73.2676 95.2862 73.2676 95.2862L72.7822 89.3646C72.7822 89.3646 69.1904 91.9857 55.5028 91.9857C41.8152 91.9857 39.2912 90.3354 39.2912 90.3354L39.2912 96.354Z" fill="#594008"/>
<path d="M63.1989 70.0581L63.9007 85.1237L66.3205 80.8729L44.4288 95.8749C43.7526 96.3383 43.2781 97.0415 43.1015 97.842C42.9249 98.6425 43.0595 99.4801 43.478 100.185C43.8965 100.89 44.5675 101.409 45.3549 101.637C46.1422 101.865 46.9868 101.785 47.7173 101.413L71.3684 89.3746C72.0587 89.0235 72.6438 88.4962 73.0644 87.8459C73.4851 87.1957 73.7262 86.4458 73.7633 85.6723L73.7882 85.1237L74.49 70.0581C74.5245 69.3167 74.4127 68.5758 74.1609 67.8776C73.9091 67.1794 73.5222 66.5377 73.0224 65.9891C72.5226 65.4404 71.9196 64.9956 71.2479 64.6799C70.5762 64.3643 69.8488 64.1841 69.1075 64.1496C68.3661 64.115 67.6252 64.2268 66.927 64.4786C66.2288 64.7304 65.5871 65.1173 65.0384 65.6171C64.4898 66.1169 64.0449 66.7199 63.7293 67.3916C63.4137 68.0634 63.2335 68.7907 63.1989 69.5321C63.1908 69.7059 63.1914 69.8876 63.1989 70.0581Z" fill="#FFB088"/>
<path d="M24.4766 52.6715L30.0695 56.3408L37.6226 56.5798L38.0649 75.0198H63.43L63.3216 72.5592C65.419 73.158 67.6172 73.3189 69.7795 73.0319C73.2668 72.5368 76.1641 70.3233 76.1641 70.3233C76.1641 70.3233 74.5706 54.0305 74.5706 50.4052C74.5706 48.457 74.3385 45.4959 72.6849 44.131C68.1289 40.3705 59.1341 39.5227 59.1341 39.5227C59.1341 39.5227 59.1648 46.2713 52.91 45.5463C49.798 45.1856 50.171 39.5227 50.171 39.5227C50.171 39.5227 44.3142 39.3101 41.1942 39.6408C38.0282 39.9764 34.8831 41.1277 33.8881 41.3924C30.5658 42.2763 20.1968 44.532 20.1968 44.532C20.1968 44.532 22.2127 46.4192 23.4531 48.3138C24.2993 49.6063 24.4766 52.6715 24.4766 52.6715Z" fill="#FBD858"/>
<path d="M39.2903 90.8371L48.706 92.9439L63.7846 82.6088L63.4299 75.0198H59.134L58.0243 63.8304C58.0243 63.8304 58.8439 55.5442 60.1847 49.9527C61.5254 44.3612 65.5664 40.773 65.5664 40.773C65.5664 40.773 62.8242 39.8465 61.5556 39.868C61.1443 39.8749 57.9743 44.1665 56.237 49.7191C54.4576 55.406 54.0848 62.479 54.0848 62.479C54.0848 62.479 44.1882 62.3088 43.7699 62.3088C42.5357 62.3088 43.0979 53.2915 44.038 48.5166C45.0217 43.5198 47.9232 39.4429 47.9232 39.4429C47.9232 39.4429 46.231 39.2944 45.5413 39.2944C44.8224 39.332 44.106 39.4082 43.3953 39.5227C43.3953 39.5227 40.3482 48.6543 39.7495 55.6864C39.1508 62.7184 40.0007 65.4352 39.7592 69.0389C39.6584 70.5437 39.9084 75.0114 39.9084 75.0114L38.0648 75.0198L39.2903 90.8371Z" fill="#024CB4"/>
<path d="M43.3665 73.4624C43.3665 73.4624 44.9415 76.8888 48.3789 76.8888C51.8163 76.8888 53.6058 73.4624 53.6058 73.4624L53.9707 64.8822H42.7871L43.3665 73.4624Z" fill="#7DEAF9"/>
<path d="M66.4467 16.532C66.4467 16.532 68.3399 0.910477 54.0002 0.039377C39.6604 -0.831723 38.9904 13.0389 38.9904 13.0389C38.9904 13.0389 51.9899 11.8328 57.7526 13.843C57.7526 13.843 64.4658 14.5511 66.4467 16.532Z" fill="#FBD858"/>
<path d="M57.1621 13.6166C57.1621 13.6166 53.3969 16.5903 47.0311 15.9202C47.0311 15.9202 34.7687 12.6368 31.4183 14.4461C31.4183 14.4461 32.4904 12.3018 38.9902 13.0389C38.9902 13.0389 47.2577 11.0449 57.1621 13.6166Z" fill="#E5C04C"/>
<path d="M3.59849 56.832L8.98896 57.045L11.6842 57.1515L12.3581 57.1781L12.916 57.2205L13.4674 57.2601C13.5633 57.268 13.6431 57.2689 13.7527 57.282L14.0873 57.324L24.7927 58.6675C25.539 58.7611 26.2926 58.5621 26.8954 58.1122C27.4981 57.6622 27.9032 56.9964 28.0256 56.2542C28.1481 55.5121 27.9784 54.7514 27.5521 54.1317C27.1258 53.512 26.4761 53.0814 25.7392 52.9304L15.1695 50.764L14.8392 50.6963C14.727 50.6738 14.5829 50.6538 14.4562 50.6326L13.6697 50.5098L12.8893 50.3938L12.2197 50.3152L9.54061 50.0008L4.18264 49.3721C3.69415 49.3145 3.1991 49.3537 2.72577 49.4875C2.25245 49.6213 1.81012 49.847 1.42407 50.1518C1.03801 50.4566 0.715796 50.8345 0.475826 51.2638C0.235857 51.6932 0.0828362 52.1656 0.0255127 52.6541C-0.0318127 53.1427 0.0076828 53.6377 0.141737 54.1109C0.275791 54.5842 0.50178 55.0264 0.806789 55.4123C1.1118 55.7981 1.48986 56.1202 1.91936 56.3599C2.34885 56.5996 2.82137 56.7524 3.30992 56.8094C3.40369 56.8204 3.50569 56.828 3.59849 56.832Z" fill="#FFB088"/>
<path d="M25.0084 53.5535L26.6357 53.2827C26.6357 53.2827 28.6494 53.8759 29.6507 54.5359C30.6521 55.196 32.1054 57.0419 32.1054 57.0419C32.1054 57.0419 32.1644 61.6039 26.2756 60.4858L20.9832 56.1624L25.0084 53.5535Z" fill="#FFB088"/>
<path d="M29.0038 59.5665C29.0735 59.6696 29.1677 59.8234 29.2476 59.9627C29.3318 60.1043 29.4113 60.2528 29.4929 60.3992C29.6515 60.6964 29.8051 60.999 29.9503 61.3069C30.2438 61.9248 30.5048 62.5576 30.7321 63.2028C31.1974 64.5009 31.5201 65.8457 31.6948 67.2135C31.7097 67.3442 31.7665 67.4665 31.8567 67.5622C31.9469 67.6578 32.0657 67.7217 32.1953 67.7442C32.2796 67.757 32.3656 67.7516 32.4477 67.7283C32.5297 67.705 32.6058 67.6643 32.6707 67.6091C32.7357 67.5538 32.788 67.4853 32.8242 67.4081C32.8604 67.3309 32.8796 67.2468 32.8805 67.1616C32.8959 66.4192 32.8695 65.6766 32.8017 64.9372C32.7358 64.1948 32.6287 63.4566 32.4809 62.726C32.3371 61.9911 32.1551 61.2641 31.9357 60.5481C31.8265 60.1884 31.7075 59.8303 31.5786 59.4736C31.5114 59.2953 31.4468 59.1168 31.3735 58.9378C31.3005 58.7543 31.2323 58.5897 31.133 58.3782L31.1248 58.3609C31.0199 58.1296 30.8447 57.9374 30.6241 57.8114C30.4036 57.6855 30.149 57.6323 29.8965 57.6594C29.7016 57.6794 29.5143 57.7458 29.3503 57.853C29.1863 57.9601 29.0503 58.105 28.9537 58.2755C28.8571 58.4459 28.8027 58.637 28.795 58.8328C28.7874 59.0285 28.8266 59.2233 28.9096 59.4008C28.937 59.4582 28.9685 59.5136 29.0038 59.5665Z" fill="#FFB088"/>
<path d="M26.0182 59.0266C26.1094 59.1059 26.2434 59.2367 26.3563 59.3537C26.4747 59.474 26.5899 59.6004 26.7049 59.7283C26.9348 59.9843 27.1529 60.2537 27.367 60.5278C27.7901 61.0813 28.1705 61.6662 28.5051 62.2774C28.8438 62.8871 29.125 63.5271 29.3448 64.189L29.5044 64.688L29.626 65.1964L29.6865 65.452L29.7264 65.7104L29.8077 66.2299L29.8162 66.2837C29.8394 66.4316 29.9179 66.5651 30.0359 66.6572C30.1539 66.7493 30.3025 66.7931 30.4516 66.7797C30.6007 66.7662 30.7391 66.6966 30.8387 66.5849C30.9383 66.4732 30.9917 66.3278 30.9881 66.1782L30.9738 65.5869L30.9658 65.2898L30.9362 64.9954L30.8729 64.4044L30.7675 63.8204C30.6164 63.0419 30.3934 62.2791 30.1014 61.5418C29.8135 60.8024 29.4697 60.0859 29.0731 59.3987C28.8715 59.0565 28.6626 58.7173 28.4357 58.3867C28.3221 58.2215 28.2067 58.0566 28.0839 57.8939C27.9583 57.726 27.8454 57.5787 27.6807 57.3885L27.6704 57.3766C27.5698 57.2604 27.4473 57.1652 27.3098 57.0964C27.1724 57.0276 27.0227 56.9865 26.8694 56.9755C26.7161 56.9645 26.5621 56.9839 26.4163 57.0324C26.2704 57.0809 26.1356 57.1577 26.0194 57.2583C25.9032 57.359 25.808 57.4815 25.7392 57.6189C25.6704 57.7564 25.6293 57.906 25.6183 58.0593C25.6073 58.2126 25.6267 58.3666 25.6752 58.5125C25.7237 58.6583 25.8005 58.7932 25.9011 58.9093C25.9376 58.9509 25.9767 58.9901 26.0182 59.0266Z" fill="#FFB088"/>
<path d="M23.8478 57.528C23.94 57.6129 24.0724 57.752 24.1849 57.8757C24.3025 58.0031 24.4174 58.1361 24.5318 58.2709C24.7609 58.5404 24.9791 58.8222 25.193 59.1087C25.6172 59.6869 26.0017 60.2932 26.3437 60.9234C26.6894 61.5539 26.9813 62.2124 27.2162 62.892C27.4527 63.5743 27.6236 64.2775 27.7267 64.9921L27.7327 65.0281C27.7545 65.1602 27.825 65.2793 27.9304 65.3619C28.0358 65.4444 28.1683 65.4845 28.3017 65.4741C28.4352 65.4637 28.5599 65.4036 28.6512 65.3057C28.7425 65.2078 28.7937 65.0792 28.7948 64.9453C28.8151 64.1404 28.7584 63.3354 28.6256 62.5412C28.4929 61.7442 28.2934 60.9599 28.0292 60.1964C27.7676 59.4301 27.4541 58.6826 27.091 57.9589C26.9064 57.5977 26.7145 57.2389 26.5055 56.8866C26.4011 56.7104 26.2944 56.5344 26.1811 56.3597C26.0647 56.1798 25.9607 56.0209 25.8073 55.8154L25.7827 55.7825C25.6799 55.6448 25.5509 55.5286 25.4033 55.4408C25.2556 55.3529 25.0921 55.295 24.922 55.2703C24.7519 55.2456 24.5787 55.2547 24.4121 55.2969C24.2456 55.3392 24.089 55.4139 23.9513 55.5167C23.8136 55.6195 23.6975 55.7484 23.6096 55.8961C23.5217 56.0438 23.4638 56.2073 23.4391 56.3774C23.4144 56.5474 23.4235 56.7207 23.4657 56.8872C23.508 57.0538 23.5827 57.2104 23.6855 57.3481C23.7343 57.4126 23.7886 57.4728 23.8478 57.528Z" fill="#FFB088"/>
<path d="M29.4882 58.161C29.4446 58.1404 29.4946 58.1577 29.5063 58.1588C29.5247 58.1619 29.5574 58.177 29.5827 58.1851C29.6418 58.2068 29.6998 58.2314 29.7564 58.2588C29.8829 58.3183 30.0049 58.3868 30.1217 58.4636C30.3755 58.6263 30.6125 58.8139 30.8293 59.0234C31.2926 59.4808 31.6837 60.0059 31.9892 60.5808C32.0664 60.731 32.1497 60.8789 32.2244 61.0327L32.4249 61.5096C32.4576 61.5898 32.4945 61.6685 32.5245 61.7504L32.6059 62.0002L32.7706 62.5028C32.8631 62.8449 32.9415 63.1944 33.0264 63.5442L33.2027 64.618L33.21 64.6623C33.2341 64.8092 33.3126 64.9417 33.4299 65.0333C33.5472 65.125 33.6947 65.1692 33.8431 65.1572C33.9915 65.1451 34.1299 65.0776 34.2308 64.9682C34.3318 64.8588 34.3879 64.7154 34.388 64.5666L34.3887 63.3893C34.3607 62.9954 34.3375 62.5983 34.2967 62.2003L34.2056 61.6033L34.1589 61.3034C34.14 61.2037 34.1134 61.105 34.0908 61.0054L33.9472 60.4071C33.8893 60.209 33.8198 60.0125 33.7553 59.8142C33.4785 58.9984 33.0801 58.2291 32.5735 57.5323C32.3038 57.1668 31.9991 56.8285 31.6639 56.5221C31.4894 56.3604 31.3046 56.2103 31.1106 56.0725C31.0076 56.0025 30.912 55.9315 30.7951 55.8649C30.7363 55.8309 30.6875 55.7986 30.6198 55.764C30.5416 55.7215 30.4611 55.6834 30.3786 55.65C30.0458 55.5325 29.6799 55.5518 29.3613 55.7039C29.0428 55.8559 28.7976 56.1282 28.6796 56.4609C28.5616 56.7936 28.5805 57.1595 28.7321 57.4782C28.8838 57.797 29.1557 58.0426 29.4883 58.161L29.4882 58.161Z" fill="#FFB088"/>
<path d="M19.9446 82.874L20.2166 83.4917L20.5514 82.8854L20.7919 83.4445L21.2197 82.8833L21.4805 83.2961L21.9184 82.812L22.2024 83.3685L22.5422 82.7892L22.8173 83.3007L23.1149 82.7579L23.3675 83.2694L23.6965 82.7113L23.9884 83.2065L24.2998 82.7427L24.5924 83.1924L24.9525 82.7011L25.2356 83.2125L25.761 83.08C25.761 83.08 26.9133 83.5426 27.2777 84.005C27.6422 84.4673 27.6728 84.445 27.8188 84.7665C27.9648 85.088 27.8846 85.4534 28.0529 85.8121C28.2211 86.1708 33.2568 91.682 33.2568 91.682L33.1028 92.5985L35.3967 95.246C35.3476 94.8919 35.3596 94.532 35.4324 94.1819C35.5519 93.5658 36.1766 92.4613 36.1766 92.4613C36.1766 92.4613 36.8981 90.7231 36.6029 90.2193C36.3077 89.7156 30.7256 83.5814 30.7256 83.5814L30.8917 83.257C30.8917 83.257 30.594 81.3363 29.6071 80.5438C28.6202 79.7513 28.2537 79.6179 26.7057 79.5344C25.4596 79.4672 24.0679 80.217 23.3032 80.3619C21.5885 80.6867 19.2104 82.4175 19.0817 82.7263C19.0489 82.8364 19.0385 82.952 19.051 83.0662C19.0635 83.1805 19.0987 83.2911 19.1546 83.3915L19.6173 83.4489L19.9446 82.874Z" fill="#7C7B7C"/>
<path d="M29.9467 93.1141L26.4597 90.8985L23.9956 89.4379L23.4102 88.8299L23.3253 88.461L23.4763 88.1702L23.999 88.2105L24.008 88.5743L24.4821 88.2511L24.6423 88.6056L24.96 88.1973L25.1112 88.5745L25.4338 88.202L25.6608 88.6281L26.0155 88.2553L26.2073 88.6704L26.5957 88.2443L26.7596 88.7103L27.1074 88.2027L27.3241 88.6596L27.6609 88.2675L27.8417 88.6775L28.1594 88.225L28.3253 88.663L28.7443 88.2108L28.9674 88.7337L29.3942 88.2802L29.7342 88.8768L30.7943 88.9664L32.0315 90.3351L33.0625 91.4686L32.8619 92.2964" fill="#7C7B7C"/>
<path d="M40.5077 101.173L41.138 100.665L42.7891 102.537L40.2193 104.764L31.8551 96.1793L29.9472 93.1142L32.8623 92.2965L40.5077 101.173Z" fill="#D63434"/>
<path d="M30.1318 90.5193C30.8438 89.9023 31.8172 90.0695 32.4341 90.7815C33.051 91.4936 33.0779 92.4808 32.3658 93.0977C32.0239 93.3937 31.5784 93.5417 31.1273 93.5093C30.6762 93.4769 30.2564 93.2667 29.9603 92.9249C29.6641 92.5831 29.5158 92.1377 29.548 91.6866C29.5802 91.2355 29.7901 90.8156 30.1318 90.5193Z" fill="#262625"/>
<path d="M30.5982 92.3739C30.2859 92.0135 30.325 91.4681 30.6854 91.1559C31.0458 90.8436 31.5911 90.8826 31.9034 91.243C32.2156 91.6035 32.1766 92.1488 31.8162 92.461C31.4558 92.7733 30.9105 92.7343 30.5982 92.3739Z" fill="#666566"/>
<path d="M40.2188 104.764L40.9683 105.629C41.2291 105.93 41.5989 106.115 41.9963 106.143C42.3936 106.172 42.786 106.041 43.0871 105.78L43.3864 105.521C43.6875 105.26 43.8726 104.89 43.9011 104.493C43.9295 104.096 43.7989 103.703 43.5381 103.402L42.7886 102.537L40.2188 104.764L40.2188 104.764Z" fill="#262625"/>
<path d="M43.0284 107.143L41.25 105.689L44.0578 104.94L44.7066 105.689L43.0284 107.143Z" fill="#D63434"/>
<path d="M53.1692 119.356C53.0142 119.23 52.9785 118.693 52.6345 118.096C52.2699 117.5 51.8592 116.935 51.4063 116.404L48.7081 113.014L43.2362 106.961L44.3806 105.97L49.7837 112.083C49.7837 112.083 51.6027 114.25 52.1029 115.006C52.6031 115.762 54.2026 117.934 54.2911 118.411C54.3797 118.887 54.4318 119.376 54.0654 119.534C53.699 119.692 53.5315 119.652 53.1692 119.356Z" fill="#D63434"/>
<path d="M58.9191 115.671C59.7198 116.268 60.87 116.749 61.1706 117.096C61.4712 117.442 61.5977 118.051 61.0125 118.344C60.4272 118.638 59.9301 118.535 58.7182 118.009C57.9966 117.717 57.3602 117.248 56.8677 116.645C55.6442 115.233 55.9786 114.678 55.1522 113.536C54.3257 112.393 48.8222 106.901 48.8222 106.901L43.824 101.498C43.824 101.498 42.9663 100.54 42.2252 100.487C41.7762 100.455 41.3252 100.507 40.8952 100.64L36.3451 95.1001L35.4322 94.1819L36.6181 90.3624L35.2728 88.6425C35.3705 88.5347 35.4919 88.4509 35.6274 88.3977C35.7628 88.3446 35.9088 88.3234 36.0538 88.3359C36.4769 88.4232 37.5634 89.8323 37.5634 89.8323L38.827 91.4603L41.2941 94.1549L56.7269 112.328C56.7269 112.328 58.1183 115.074 58.9191 115.671Z" fill="#D63434"/>
<path d="M38.7231 104.316C39.0171 104.61 38.6993 105.024 38.9951 105.525C39.2908 106.027 40.3806 106.122 41.0182 106.216C41.6557 106.31 43.9944 105.287 44.8309 104.785C45.6675 104.282 47.1384 102.613 47.1384 102.613L49.416 99.7827L45.1147 95.8514C45.1147 95.8514 35.7736 98.9737 35.3916 99.3557C35.0095 99.7378 34.7432 100.534 35.1356 100.926C35.528 101.318 37.2911 101.107 37.4645 101.281C37.638 101.454 37.5139 102.465 37.5139 102.465C37.5139 102.465 37.204 103.488 37.5453 103.829C37.8867 104.171 38.4291 104.022 38.7231 104.316Z" fill="#FFB088"/>
<path d="M53.6621 20.8612C53.6617 20.6219 53.5664 20.3926 53.397 20.2235C53.2277 20.0544 52.9982 19.9595 52.7589 19.9595C52.5196 19.9595 52.2901 20.0544 52.1207 20.2235C51.9514 20.3926 51.856 20.6219 51.8556 20.8612C51.8556 21.3601 52.26 21.6226 52.7589 21.6226C53.2577 21.6226 53.6621 21.3601 53.6621 20.8612Z" fill="#44230F"/>
<path d="M50.5676 20.7371C50.8669 20.5963 51.1743 20.4738 51.4884 20.3702C51.7954 20.2702 52.1115 20.2006 52.4321 20.1621C52.5906 20.1444 52.7499 20.1353 52.9094 20.1346C53.069 20.1389 53.2282 20.1526 53.3862 20.1758C53.7109 20.2259 54.0295 20.3096 54.3369 20.4253L54.3486 20.4292C54.3764 20.4384 54.4066 20.4373 54.4337 20.4262C54.4608 20.4151 54.483 20.3947 54.4963 20.3686C54.5097 20.3425 54.5132 20.3125 54.5064 20.284C54.4995 20.2556 54.4827 20.2305 54.459 20.2133C54.1681 19.9888 53.8359 19.8236 53.4814 19.7271C53.1221 19.6262 52.7466 19.5962 52.3759 19.6388C52.0087 19.6762 51.6501 19.7738 51.3146 19.9278C50.9804 20.0768 50.6763 20.2857 50.4173 20.5441C50.3971 20.5648 50.3849 20.5918 50.3826 20.6205C50.3803 20.6492 50.3882 20.6778 50.4049 20.7014C50.4215 20.7249 50.4459 20.7418 50.4737 20.7492C50.5016 20.7567 50.5311 20.7541 50.5573 20.7419L50.5676 20.7371Z" fill="#6B3027"/>
<path d="M50.212 17.2182C50.6579 17.2655 51.0753 17.2909 51.4718 17.3286C51.8539 17.3632 52.2337 17.42 52.6092 17.4985C52.9727 17.5774 53.3248 17.7022 53.6569 17.8698C54.0215 18.0571 54.3705 18.2732 54.7006 18.516L54.7133 18.5242C54.7351 18.5383 54.7607 18.5455 54.7866 18.5446C54.8126 18.5438 54.8377 18.5351 54.8585 18.5196C54.8794 18.5042 54.895 18.4827 54.9034 18.4581C54.9117 18.4335 54.9124 18.407 54.9052 18.382C54.7798 17.9125 54.522 17.489 54.1625 17.1621C53.795 16.8232 53.3474 16.5832 52.8617 16.4647C52.3905 16.3439 51.8986 16.3271 51.4202 16.4156C50.9485 16.4937 50.5044 16.6906 50.1299 16.9878C50.1102 17.0041 50.0958 17.0258 50.0884 17.0502C50.081 17.0746 50.081 17.1007 50.0884 17.1251C50.0957 17.1495 50.1101 17.1712 50.1297 17.1876C50.1493 17.2039 50.1733 17.214 50.1987 17.2168L50.212 17.2182Z" fill="#6B3027"/>
<path d="M44.8906 20.8612C44.8902 20.6219 44.7949 20.3926 44.6256 20.2235C44.4562 20.0544 44.2267 19.9595 43.9874 19.9595C43.7481 19.9595 43.5186 20.0544 43.3492 20.2235C43.1799 20.3926 43.0845 20.6219 43.0841 20.8612C43.0841 21.3601 43.4885 21.6226 43.9874 21.6226C44.4862 21.6226 44.8906 21.3601 44.8906 20.8612Z" fill="#44230F"/>
<path d="M42.1881 20.4201C42.4271 20.2663 42.6938 20.1603 42.9732 20.108C43.2539 20.0588 43.5406 20.0545 43.8227 20.0954C44.116 20.1374 44.405 20.2059 44.686 20.2999C44.8266 20.3569 44.9723 20.4041 45.1172 20.4583C45.2614 20.5156 45.4025 20.5803 45.5539 20.6318L45.5633 20.635C45.5905 20.6442 45.6201 20.6437 45.6469 20.6335C45.6738 20.6233 45.6963 20.6041 45.7105 20.5791C45.7246 20.5541 45.7297 20.5249 45.7247 20.4967C45.7197 20.4684 45.705 20.4427 45.6831 20.4241C45.5584 20.318 45.4237 20.2252 45.2919 20.1249C45.1533 20.0361 45.0078 19.9553 44.8615 19.8761C44.556 19.7263 44.2293 19.6243 43.8929 19.5737C43.5446 19.5177 43.1882 19.5433 42.8515 19.6486C42.5065 19.7525 42.2064 19.9693 41.9995 20.2642C41.984 20.2876 41.977 20.3157 41.9798 20.3437C41.9826 20.3716 41.995 20.3977 42.0149 20.4176C42.0347 20.4375 42.0608 20.4499 42.0888 20.4527C42.1167 20.4556 42.1448 20.4487 42.1682 20.4332L42.1881 20.4201Z" fill="#6B3027"/>
<path d="M40.7346 18.4948C41.1309 18.2087 41.4754 17.9572 41.8159 17.7547C42.1373 17.558 42.4762 17.3913 42.8282 17.2567C43.0057 17.1931 43.1864 17.1389 43.3696 17.0944C43.4644 17.0773 43.5566 17.0392 43.6553 17.0251C43.7539 17.0115 43.8537 16.9925 43.9552 16.9733C44.0581 16.9506 44.1625 16.9352 44.2676 16.9272C44.374 16.9157 44.4829 16.8981 44.5943 16.879C44.8303 16.8615 45.0651 16.83 45.2974 16.7846L45.3123 16.7813C45.3366 16.7761 45.3589 16.764 45.3766 16.7466C45.3944 16.7292 45.4068 16.7071 45.4125 16.6829C45.4182 16.6587 45.4169 16.6333 45.4088 16.6098C45.4008 16.5863 45.3862 16.5656 45.3668 16.55C45.1673 16.3914 44.9518 16.2539 44.7237 16.14C44.6065 16.0926 44.4865 16.0467 44.3642 16.0069C44.2427 15.9609 44.1167 15.928 43.9883 15.9085C43.8593 15.889 43.7285 15.8695 43.5968 15.8555C43.463 15.8481 43.329 15.8495 43.1954 15.8595L42.9929 15.871C42.9255 15.8786 42.8591 15.8966 42.7921 15.9094C42.657 15.9334 42.5237 15.967 42.3933 16.0099C41.867 16.1797 41.4014 16.499 41.0534 16.9288C40.7033 17.3405 40.5101 17.8627 40.5079 18.4031C40.5083 18.4272 40.5154 18.4507 40.5282 18.471C40.541 18.4914 40.5592 18.5079 40.5808 18.5187C40.6023 18.5295 40.6264 18.5341 40.6504 18.5322C40.6744 18.5302 40.6974 18.5218 40.7169 18.5077L40.7346 18.4948Z" fill="#6B3027"/>
<path d="M43.6152 28.5432C43.6152 28.5432 43.7179 28.7365 43.9112 29.0275C44.4811 29.8885 45.8435 31.6105 47.6633 31.6864C47.7196 31.6888 47.7807 31.6913 47.8395 31.6913C50.2708 31.6913 51.7287 29.5608 51.8486 29.3798C51.8534 29.3724 51.851 28.5432 51.851 28.5432H43.6152Z" fill="#6C110F"/>
<path d="M47.6624 31.6865C47.7187 31.689 47.7798 31.6914 47.8386 31.6914C50.2699 31.6914 51.7277 29.5609 51.8477 29.3799C51.7326 29.3726 51.6176 29.3677 51.5002 29.3677C49.5777 29.3677 47.9803 30.3681 47.6624 31.6865Z" fill="#CD444B"/>
<path d="M43.614 28.5432C43.614 28.5432 43.7167 28.7365 43.91 29.0275H51.0059V28.5432H43.614Z" fill="#FFF1E7"/>
</svg>
