<svg width="423" height="290" viewBox="0 0 423 290" fill="none" xmlns="http://www.w3.org/2000/svg">
<path d="M230.301 0.12943C231.867 -0.403822 231.799 0.820712 231.96 1.7983C231.577 8.22334 225.782 90.571 225.405 91.113C225.404 91.493 220.758 127.678 218.943 136.956C217.731 143.152 215.72 149.069 213.358 154.874C213.162 155.355 212.528 155.96 213.132 156.392C213.783 156.858 214.537 156.533 215.057 155.91C215.607 155.25 215.89 154.416 216.3 153.665C225.553 136.701 234.766 119.715 243.94 102.705C246.769 97.4752 249.551 92.2174 252.425 87.0133C253.113 85.769 253.963 85.171 255.348 85.1878C258.732 85.2288 262.116 85.2295 265.501 85.1897C266.89 85.1753 267.567 85.6891 267.835 87.2074C270.02 99.5797 275.773 133.139 276.242 135.723C277.288 141.485 278.251 147.264 279.203 153.043C279.363 153.654 279.344 154.301 279.541 154.905C279.714 155.461 279.674 156.015 280.172 156.439C287.205 156.746 343.934 156.169 352.254 156.137C357.911 156.114 363.569 156.124 369.226 156.12C369.736 156.262 407.226 155.898 420.453 155.786C422.428 155.769 423.655 158.013 422.631 159.77C414.583 173.589 386.663 219.603 371.91 244.138C371.299 245.153 370.669 245.505 369.535 245.471C362.655 245.265 158.974 240.729 156.993 240.696C156.413 240.686 155.913 240.462 155.682 239.837C155.468 239.158 155.512 238.465 155.625 237.78C157.618 225.773 159.436 213.736 161.459 201.734C161.505 201.392 161.594 201.058 161.724 200.74C162.229 200.277 162.577 199.782 161.975 199.131C160.765 198.898 159.688 199.927 158.465 199.516C157.978 199.19 157.969 198.655 157.898 198.141C157.194 192.998 153.866 189.629 148.818 189.144C146.839 188.954 144.817 188.847 142.846 189.315C137.497 190.587 134.586 194.357 133.142 199.63C132.895 200.534 132.956 201.646 131.888 202.122C130.527 202.317 129.195 202.386 128.131 201.232C127.82 200.493 128.033 199.759 128.159 199.025C128.678 196.017 129.241 193.018 129.812 190.021C129.937 189.363 130.234 188.678 129.769 188.028C129.289 187.606 128.714 187.718 128.169 187.716C120.957 187.687 113.745 187.756 106.534 187.677C106.369 187.675 106.208 187.728 106.075 187.829C105.582 189.554 105.395 191.341 104.995 193.078C104.844 193.737 104.86 194.479 104.266 194.956C103.221 195.226 102.456 194.54 101.666 194.06C93.8953 189.336 87.6268 182.981 82.2136 175.498C65.4221 152.285 69.7025 125.197 69.9634 123.546C71.2683 115.294 74.1237 107.635 78.0915 100.406C83.5511 90.4589 90.9991 82.2491 99.1195 74.6555C112.155 62.4655 126.882 52.8182 142.081 43.8899C153.782 37.0163 165.794 30.7686 177.932 24.787C180.774 23.3864 221.446 4.37211 230.301 0.12943Z" fill="#393185"/>
<path d="M69.9369 139.216C70.5474 143.538 71.1023 147.868 72.2354 152.092C74.9134 162.073 79.5001 170.992 85.8702 178.949C91.0292 185.394 97.1683 190.565 104.249 194.547C104.809 195.188 104.69 195.948 104.544 196.68C103.042 204.185 101.713 211.727 100.255 219.241C99.8237 221.466 99.9331 221.649 102.107 221.64C106.985 221.622 105.967 222.139 106.931 217.184C108.106 211.139 109.207 205.076 110.34 199.021C110.454 198.414 110.449 197.73 111.087 197.371C113.29 197.472 115.344 198.325 117.479 198.78C118.856 199.074 120.313 199.129 121.583 199.883C121.765 202.513 120.866 204.975 120.44 207.506C119.754 211.586 118.929 215.641 118.157 219.705C117.832 221.417 118.006 221.636 119.67 221.642C125.05 221.664 123.908 221.969 124.822 217.363C125.828 212.291 126.713 207.191 127.718 202.117C127.82 201.605 127.669 200.902 128.432 200.743C129.965 201.14 132.57 201.509 132.57 201.509C132.57 201.509 132.533 203.075 132.388 203.91C131.974 206.291 131.447 208.65 131.117 211.048C130.269 217.221 134.176 222.171 140.169 222.75C142.52 222.977 144.838 223.007 147.087 222.387C152.022 221.025 154.531 217.215 155.794 212.381C156.782 208.598 157.376 204.719 158.04 200.86C158.156 200.186 158.156 199.46 158.785 199.009C159.497 198.851 160.135 198.697 160.827 198.565C161.037 198.525 161.254 198.539 161.458 198.604C161.663 198.67 161.849 198.786 162.001 198.942C162.153 199.099 162.267 199.291 162.333 199.503C162.399 199.714 162.415 199.94 162.379 200.159C161.831 203.57 160.649 210.762 160.035 214.492C158.762 222.218 153.712 239.164 157.013 239.99C163.855 241.703 216.967 241.309 295.147 243.78C281.491 259.564 264.741 271.016 245.92 279.138C233.741 284.394 221.056 287.693 207.905 289.147C195.415 290.528 182.984 290.246 170.614 288.2C156.268 285.842 142.38 281.104 129.478 274.164C115.442 266.628 103.005 256.874 92.2829 244.806C81.0432 232.154 72.3684 217.803 66.4668 201.693C56.8347 178.532 58.794 163.229 58.4357 161.471C58.1559 160.099 60.6792 128.806 60.8652 128.21C63.4875 115.585 67.7317 103.58 73.6986 92.2522C81.5443 77.358 91.7297 64.4556 104.255 53.545C117.531 41.9361 132.409 33.2857 148.889 27.5937C156.849 24.8353 164.989 22.9392 173.256 21.5898C175.222 21.2689 177.23 21.2184 179.184 20.7671C181.728 20.6614 184.699 20.7003 187.243 20.5947C180.23 23.1381 177.24 25.2546 172.458 27.6704C151.995 38.0082 131.904 49.0269 113.43 62.9588C102.35 71.3141 92.1134 80.6162 83.8323 92.0597C77.7233 100.502 73.3054 109.781 71.1475 120.148C69.287 128.359 69.883 139.362 69.9369 139.216Z" fill="#44BEE7"/>
<path d="M274.162 126.15C273.576 122.231 273.035 118.989 272.432 115.418C270.834 105.941 269.132 96.4825 267.54 87.0043C267.365 85.9604 267.023 85.6858 266.068 85.6985C262.461 85.7461 258.853 85.7559 255.246 85.6931C254.219 85.6752 253.675 86.0398 253.174 86.9693C243.924 104.12 234.653 121.259 225.36 138.385C222.232 144.163 219.045 149.909 216.023 155.748C215.306 157.182 214.445 157.178 212.13 157.026C212.843 155.314 213.499 153.748 214.148 152.179C217.462 144.168 219.064 135.689 220.467 127.155C222.139 116.986 227.808 59.9465 228.241 54.7435C228.379 53.0804 230.294 25.9768 230.294 25.9768C230.294 25.9768 231.841 26.4702 232.486 26.6659C250.323 32.0843 266.381 41.0183 280.669 53.3262C294.152 64.941 305.033 78.8182 313.166 94.974C317.985 104.547 321.646 114.592 324.048 125.106C326.396 135.325 327.552 145.8 327.493 156.306C322.018 156.348 316.543 156.401 311.067 156.428C303.599 156.464 289.497 156.728 286.711 156.728C283.877 156.728 282.777 156.798 281.508 156.791C281.028 156.788 280.564 156.613 280.193 156.297C279.822 155.98 279.567 155.541 279.471 155.052C278.784 151.591 277.412 143.963 276.793 140.551C276.028 136.336 275.261 132.121 274.491 127.907C274.387 127.402 274.303 126.71 274.162 126.15Z" fill="#44BEE7"/>
<path d="M65.3878 158.515C63.6791 148.878 62.0178 139.231 60.345 129.587C60.2656 128.977 53.0517 87.919 52.65 85.6325C52.6353 85.5371 52.5909 85.4494 52.5235 85.383C52.3609 85.2305 52.1358 85.2529 51.918 85.2529C47.9233 85.2527 43.9286 85.2537 39.934 85.2556C39.662 85.2558 39.5106 85.2226 39.2381 85.5647C38.9949 85.9371 38.7252 86.2941 38.5133 86.685C28.9645 104.304 3.37008 151.698 0.119794 157.774C0.0363162 157.93 -0.00492783 158.106 0.00046925 158.284C0.00586633 158.462 0.0577018 158.636 0.150437 158.786C0.243172 158.936 0.373321 159.056 0.526978 159.135C0.680636 159.214 0.852026 159.248 1.02284 159.234C1.13089 159.224 11.4384 159.291 14.8095 159.313C15.1282 159.315 15.4416 159.228 15.7167 159.061C15.9917 158.893 16.2183 158.651 16.3726 158.361C18.8006 153.797 21.2437 149.242 23.6272 144.652C24.093 143.756 24.7273 143.704 25.5282 143.706C31.4553 143.721 46.6507 143.565 46.9933 144.005C47.6689 144.657 49.2377 157.36 49.4428 158.207C49.5394 158.605 49.7585 158.959 50.0669 159.216C50.3752 159.473 50.7557 159.617 51.1505 159.628C54.553 159.72 63.2511 160.07 64.8308 159.72C65.3107 159.465 65.5063 159.184 65.3878 158.515Z" fill="#393185"/>
<path d="M411.934 162.388C412.466 162.386 413.024 162.228 413.565 162.539C413.52 163.227 413.04 163.669 412.718 164.177C397.464 188.205 382.213 212.235 366.964 236.266C366.145 237.559 365.322 238.079 363.796 238.05C335.436 237.502 263.392 236.468 258.124 236.45C257.592 236.448 169.848 234.613 165.984 234.569C164.669 234.554 164.264 234.252 164.559 232.836C165.037 230.54 170.459 197.61 170.513 197.223C171.163 194.037 175.473 167.066 176.407 163.502C176.43 163.412 176.481 163.332 176.551 163.274C176.622 163.216 176.708 163.183 176.798 163.18C183.18 162.981 386.122 162.482 411.934 162.388Z" fill="#FDFDFD"/>
<path d="M85.2748 109.22C86.9506 102.347 89.7051 96.0409 95.0265 91.3041C98.9634 87.7997 103.542 85.7398 108.691 85.1148C115.169 84.3284 121.546 84.6035 127.601 87.4593C134.25 90.5958 138.446 95.6675 139.915 102.846C140.175 104.135 140.295 105.451 140.271 106.769C140.15 114.252 136.807 130.446 135.852 134.703C135.008 138.467 133.946 142.177 132.085 145.558C131.641 146.365 131.855 146.746 132.416 147.274C134.061 148.821 135.632 150.453 137.296 151.978C137.984 152.609 137.914 152.976 137.303 153.604C134.582 156.402 131.879 159.22 129.235 162.096C128.535 162.858 128.178 162.709 127.568 162.038C126.082 160.404 124.477 158.887 123.011 157.235C122.325 156.462 121.825 156.466 120.929 156.902C111.552 161.462 101.984 161.561 92.6043 157.261C83.2895 152.991 78.9011 143.424 80.7347 132.676C81.2859 129.445 84.2417 113.456 85.2748 109.22Z" fill="#FDFDFD"/>
<path d="M160.171 92.0208C160.517 90.2115 160.951 88.4139 161.162 86.5841C161.24 85.9113 162.014 85.2031 163.028 85.2164C167.356 85.2731 171.279 85.2765 175.607 85.2328C176.569 85.2231 176.807 85.422 176.605 86.4791C175.454 92.5284 168.632 128.11 167.962 133.934C167.165 140.861 171.365 145.343 178.057 145.185C184.873 145.023 190.107 140.674 191.513 133.595C193.62 122.984 199.374 91.7342 200.231 86.7416C200.44 85.5258 200.9 85.1935 202.069 85.2176C206.172 85.302 210.276 85.303 214.381 85.2204C215.683 85.1944 215.939 85.506 215.683 86.8551C213.526 98.2174 211.442 109.595 209.337 120.968C209.266 121.396 207.519 131.203 206.469 135.615C203.393 148.527 196.019 157.036 183.105 159.548C177.979 160.546 172.831 160.454 167.792 158.838C156.064 155.078 150.271 144.873 152.651 132.281C153.934 125.495 158.98 98.2355 160.171 92.0208Z" fill="#FDFDFD"/>
<path d="M111.183 197.517C110.201 202.58 107.24 218.129 106.776 220.846C106.613 221.802 106.116 222.28 105.138 222.227C103.646 222.145 102.793 222.231 100.725 222.151C99.539 222.105 99.3153 221.752 99.5331 220.63C100.364 216.348 104.249 194.547 104.249 194.547C104.249 194.547 105.05 190.582 105.506 188.611C105.621 188.118 105.642 187.602 105.971 187.189C106.288 186.848 106.698 186.969 107.072 186.969C113.628 186.963 126.784 187.21 130.085 187.274C130.179 187.275 130.271 187.299 130.356 187.341C130.44 187.384 130.515 187.446 130.574 187.522C130.634 187.598 130.677 187.686 130.7 187.781C130.723 187.876 130.726 187.975 130.709 188.071C130.299 190.35 129.094 197.057 128.432 200.741C127.229 207.229 125.998 213.711 124.845 220.207C124.532 222.239 122.977 222.205 122.633 222.172C122.574 222.166 118.562 222.142 118.562 222.142C118.562 222.142 117.232 222.164 117.468 220.94C118.262 216.825 118.983 212.696 119.749 208.575C120.284 205.694 120.85 202.82 121.401 199.943C120.813 198.736 121.409 197.583 121.578 196.42C121.828 194.688 121.78 194.582 120.021 194.567C118.037 194.551 116.05 194.624 114.069 194.542C112.761 194.489 111.94 194.86 111.807 196.339C111.786 196.569 111.72 196.793 111.613 196.995C111.506 197.198 111.359 197.375 111.183 197.517Z" fill="#FDFDFD"/>
<path d="M158.785 199.009C158.785 199.009 157.316 209.377 155.628 214.341C153.217 221.428 148.051 223.619 141.931 223.394C140.057 223.325 138.183 223.082 136.427 222.253C132.187 220.252 129.915 215.975 130.64 211.126C131.014 208.626 133.213 198.034 133.87 196.402C137.22 188.077 148.159 185.167 155.034 190.749C159.575 194.435 158.785 199.009 158.785 199.009Z" fill="#FDFDFD"/>
<path d="M261.825 144.772C262.362 148.228 262.899 151.683 263.437 155.138C263.654 156.515 262.717 156.274 261.976 156.277C254.439 156.311 246.902 156.326 239.365 156.372C237.317 156.385 235.27 156.479 233.223 156.545C232.37 156.573 231.906 156.443 232.487 155.398C234.508 151.762 236.479 148.097 238.468 144.443C239.037 143.813 239.753 143.664 240.557 143.665C246.81 143.671 253.064 143.656 259.318 143.684C260.267 143.688 261.318 143.595 261.825 144.772Z" fill="#44BEE7"/>
<path d="M259.509 128.465C259.509 129.34 259.289 129.896 258.766 129.896C255.016 129.931 251.264 130.045 247.515 129.879C247.358 129.872 247.206 129.828 247.068 129.75C246.931 129.672 246.812 129.563 246.722 129.43C246.631 129.298 246.571 129.145 246.545 128.985C246.52 128.824 246.529 128.66 246.574 128.504C247.427 125.51 251.313 118.234 253.19 114.118C254.204 111.893 255.233 109.675 256.379 107.474C256.427 107.382 256.503 107.308 256.594 107.263C256.686 107.218 256.789 107.205 256.888 107.225C256.988 107.246 257.078 107.299 257.147 107.376C257.215 107.454 257.258 107.552 257.269 107.657C257.715 111.895 259.26 124.032 259.509 128.465Z" fill="#44BEE7"/>
<path d="M69.9383 139.216C69.9078 139.589 69.8772 139.963 69.8467 140.336L69.6387 140.304V126.438C70.0737 126.818 69.8247 127.264 69.9461 127.622C69.9436 131.487 69.941 135.352 69.9383 139.216Z" fill="#5EB7EA"/>
<path d="M117.2 84.4397H111.308C111.307 84.3949 111.306 84.35 111.305 84.3052H117.198C117.199 84.35 117.199 84.3949 117.2 84.4397Z" fill="#2D247D"/>
<path d="M80.1504 134.2V139.983C80.0957 139.983 80.041 139.983 79.9863 139.983V134.19L80.1504 134.2Z" fill="#342C7C"/>
<path d="M227.466 69.892C227.468 71.1605 227.471 72.429 227.467 73.6975C227.467 73.7192 227.351 73.7634 227.348 73.7588C227.272 73.6316 227.204 73.4994 227.134 73.3674C227.18 72.2018 227.006 71.0141 227.466 69.892Z" fill="#62B5EA"/>
<path d="M111.184 197.517C112.135 193.744 111.521 194.016 114.813 194.016C116.678 194.016 118.542 194.016 120.452 194.016C120.705 194.016 120.955 194.075 121.184 194.187C121.413 194.3 121.615 194.464 121.776 194.668C121.936 194.872 122.052 195.11 122.113 195.366C122.174 195.621 122.18 195.888 122.131 196.146C121.881 197.446 121.642 198.694 121.402 199.943C117.901 199.566 114.517 198.658 111.184 197.517Z" fill="#393184"/>
<path d="M249.26 255.488C248.465 255.214 247.649 255.106 246.808 255.063C244.063 254.925 241.375 255.414 238.729 256.013C231.047 257.751 223.391 259.616 215.727 261.44C205.762 263.812 195.678 265.338 185.463 265.724C172.244 266.224 159.257 264.741 146.534 260.746C132.257 256.264 119.443 248.982 107.695 239.533C103.231 235.943 85.2816 216.648 84.5479 216.42C84.8274 217.113 96.889 232.138 98.321 233.718C112.487 249.356 128.791 261.75 148.324 269.219C160.018 273.691 172.083 276.181 184.536 276.573C195.096 276.906 205.589 276.122 216.053 274.596C225.23 273.258 234.316 271.587 243.038 268.219C246.006 267.072 248.916 265.752 251.176 263.346C253.888 260.461 252.957 256.761 249.26 255.488Z" fill="#FDFDFD"/>
<path d="M43.8382 117.743C44.2292 121.409 44.6088 125.077 45.0978 128.729C45.2368 129.768 45.0191 130.011 44.0522 130.001C40.4461 129.963 36.8395 129.977 33.0468 129.981C32.8613 129.982 32.6786 129.933 32.5161 129.84C32.3535 129.747 32.2162 129.612 32.1171 129.449C32.018 129.286 31.9602 129.099 31.9492 128.907C31.9382 128.714 31.9743 128.521 32.0542 128.347C35.5668 120.689 39.0129 113.176 42.4605 105.661C42.4678 105.645 42.4799 105.632 42.495 105.624C42.5101 105.615 42.5273 105.613 42.5441 105.616C42.5608 105.619 42.5762 105.627 42.5878 105.64C42.5994 105.653 42.6067 105.669 42.6085 105.687C43.0181 109.706 43.4097 113.727 43.8382 117.743Z" fill="white"/>
<path d="M328.497 231.965C328.438 232.186 328.387 232.61 328.343 232.797C328.162 233.559 327.653 233.996 326.515 234.025C324.803 234.068 323.097 234.114 321.505 234.027C321.321 234.017 321.141 233.967 320.977 233.879C320.814 233.792 320.67 233.669 320.555 233.52C320.44 233.37 320.356 233.197 320.31 233.012C320.264 232.827 320.256 232.633 320.287 232.444C320.636 230.3 321.317 226.348 321.62 224.016C321.634 223.908 321.628 223.798 321.601 223.693C321.575 223.588 321.528 223.489 321.465 223.403C321.402 223.317 321.322 223.244 321.232 223.189C321.142 223.135 321.042 223.099 320.938 223.085C320.61 223.037 320.279 223.012 319.947 223.011C304.694 222.996 289.441 222.992 274.188 222.999C272.408 222.999 271.341 223.139 271.888 220.776C272.675 216.22 279.611 178.612 279.969 176.172C280.063 175.535 280.377 175.344 280.981 175.35C283.748 175.378 286.516 175.367 289.284 175.359C289.804 175.358 290.124 175.437 289.981 176.128C289.458 178.652 285.415 200.716 284.019 208.915C283.799 210.209 283.671 210.95 283.558 212.506C283.545 212.682 283.567 212.859 283.621 213.027C283.675 213.195 283.761 213.349 283.874 213.482C283.987 213.614 284.124 213.722 284.278 213.798C284.431 213.874 284.598 213.918 284.768 213.926C287.624 214.061 290.479 214.095 293.335 213.909C293.663 213.887 293.976 213.757 294.229 213.537C294.481 213.317 294.659 213.019 294.737 212.686C295.707 208.55 296.276 204.331 297.096 200.164C298.002 195.556 301.171 178.096 301.464 176.164C301.567 175.487 301.927 175.351 302.501 175.355C305.219 175.371 307.937 175.388 310.654 175.349C311.47 175.337 311.572 175.691 311.438 176.396C310.225 182.777 305.867 206.797 304.949 211.955C304.948 211.961 304.947 211.968 304.946 211.974C304.903 212.204 304.907 212.441 304.96 212.669C305.012 212.898 305.111 213.111 305.25 213.297C305.388 213.482 305.563 213.634 305.763 213.742C305.963 213.851 306.183 213.914 306.408 213.927C309.045 214.076 311.687 214.079 314.324 213.937C314.83 213.907 315.311 213.702 315.692 213.356C316.074 213.009 316.333 212.54 316.429 212.023C317.543 206.057 318.658 200.091 319.774 194.126C320.868 188.304 322.922 177.22 323.157 176.04C323.31 175.334 323.552 175.361 324 175.361C326.703 175.361 329.405 175.378 332.108 175.354C332.21 175.351 332.312 175.365 332.411 175.395C332.873 175.541 332.904 175.933 332.827 176.493C332.392 178.335 330.01 192.246 328.64 199.83C327.863 204.134 327.095 208.441 326.254 212.732C326.065 213.7 326.294 213.886 327.186 213.925C328.179 213.968 329.764 213.929 330.782 214.019C330.906 214.031 331.028 214.069 331.137 214.132C331.247 214.194 331.343 214.28 331.42 214.383C331.496 214.486 331.551 214.605 331.581 214.731C331.611 214.858 331.616 214.989 331.594 215.118C329.808 225.953 329.794 226.09 328.497 231.965Z" fill="#393185"/>
<path d="M179.916 197.882C181.236 190.429 182.492 182.962 184.142 175.576C186.541 175.844 188.948 175.655 191.352 175.678C192.073 175.685 192.686 175.803 193.189 176.352C195.121 183.029 196.699 189.798 198.146 196.603C198.631 198.886 199.135 201.164 199.733 203.918C200.291 202.993 200.637 202.447 200.957 201.885C205.808 193.349 210.874 184.952 216.058 176.631C216.637 175.702 217.208 175.28 218.306 175.329C220.576 175.431 222.852 175.378 225.126 175.353C225.833 175.345 226.296 175.376 226.108 176.363C224.044 187.216 221.995 198.071 219.961 208.929C219.952 208.98 217.962 219.773 217.582 222.005C217.552 222.187 217.505 222.366 217.442 222.539C217.216 223.143 216.906 223.294 216.227 223.283C213.789 223.241 211.348 223.222 208.911 223.29C207.769 223.322 207.392 223.144 207.664 221.775C208.974 215.175 210.16 208.549 211.379 201.93C211.446 201.567 211.652 201.19 211.32 200.661C209.69 203.342 204.256 213.452 202.091 215.796C201.833 216.076 201.524 216.299 201.183 216.453C200.841 216.607 200.473 216.689 200.1 216.693C198.371 216.708 197.741 216.643 196.257 216.627C194.39 216.584 193.863 216.359 193.104 214.643C191.568 210.111 190.631 205.482 189.257 200.758C188.121 206.832 186.952 212.899 185.861 218.981C185.092 223.264 185.139 223.273 180.949 223.271C179.342 223.27 177.734 223.25 176.127 223.277C175.449 223.289 175.098 223.168 175.263 222.317C176.789 214.479 178.299 206.638 179.795 198.793C179.984 198.933 180.08 199.081 179.83 199.257C180.061 199.221 180.021 199.03 180.018 198.877C180.01 198.543 180.075 198.2 179.916 197.882Z" fill="#393185"/>
<path d="M242.824 223.462C233.971 223.062 228.023 215.89 229.266 206.676C230.026 201.037 231.024 195.404 232.515 189.91C234.312 183.288 237.84 178.119 244.483 175.995C248.941 174.57 253.468 174.572 257.913 176.061C264.933 178.415 268.752 184.488 267.696 192.07C266.904 197.766 265.921 203.457 264.409 209.006C262.696 215.293 259.462 220.329 253.176 222.556C251.762 223.056 250.325 223.494 248.804 223.468C246.709 223.66 245.56 223.689 242.824 223.462Z" fill="#393185"/>
<path d="M345.321 183.588C345.56 182.295 346.09 179.695 346.275 178.822C346.96 175.632 347.625 175.36 349.936 175.36C351.872 175.361 353.63 175.348 355.565 175.347C356.709 175.346 356.713 176.617 356.517 177.608C355.494 182.787 354.73 186.524 353.769 191.717C353.768 191.722 353.767 191.727 353.766 191.732C353.716 191.983 353.719 192.243 353.774 192.492C353.83 192.742 353.936 192.976 354.087 193.179C354.238 193.382 354.429 193.548 354.647 193.667C354.865 193.786 355.106 193.854 355.352 193.867C357.847 193.991 360.346 193.819 362.842 193.901C363.668 193.928 364.212 193.939 365.319 194.03C371.068 194.624 375.174 199.333 375.495 205.7C376.024 216.215 368.971 223.474 358.525 223.167C357.429 223.167 356.996 223.126 356.289 223.124C350.754 223.106 345.329 222.978 339.794 223.02C338.883 223.027 338.064 222.998 338.265 221.803C338.784 218.498 339.33 215.198 340.141 211.953C340.238 211.497 343.628 192.741 345.321 183.588Z" fill="#393185"/>
<path d="M370.993 167.002C372.332 167.002 372.582 167.017 373.183 167.016C379.726 167.005 385.885 166.914 392.427 166.834C394.805 166.805 397.185 166.658 399.566 166.694C400.42 166.707 401.222 166.82 400.739 168.081C397.319 174.051 393.421 179.697 389.803 185.533C387.38 189.443 384.876 193.3 382.407 197.18C381.595 198.278 381.891 197.155 382.016 196.758C383.929 191.79 385.842 186.822 387.757 181.855C388.915 178.866 390.091 175.884 391.286 172.91C391.608 172.111 391.523 171.79 390.598 171.779C388.105 171.747 385.615 171.599 383.122 171.559C373.032 171.397 362.94 171.343 352.852 171.092C339.772 170.767 326.689 170.637 313.608 170.379C300.471 170.121 276.454 169.506 272.746 169.48C273.309 168.829 274.073 168.955 274.771 168.982C278.249 169.114 285.253 168.27 285.793 168.267C291.28 168.236 296.767 168.243 302.254 168.256C302.705 168.257 303.18 168.106 303.385 168.237C298.575 168.237 293.537 168.245 288.5 168.227C287.909 168.225 287.281 168.423 286.722 168.036C288.841 167.997 339.014 167.555 348.646 167.554" fill="#393185"/>
<path d="M281.562 168.606C280.824 169.269 280.258 169.101 279.755 169.102C272.538 169.113 265.321 169.11 258.104 169.093C257.521 169.091 256.696 169.481 256.477 168.421" fill="#393185"/>
<path d="M193.189 176.352C193.175 176.524 193.186 176.704 193.14 176.866C193.106 176.987 192.923 177.266 192.888 176.935C192.759 175.737 191.905 176.056 191.248 176.051C189.143 176.034 187.036 176.033 184.932 176.094C184.472 176.108 184.175 176.137 184.142 175.576C186.936 175.091 189.75 175.477 192.554 175.379C193.202 175.357 193.189 175.877 193.189 176.352Z" fill="#382F7D"/>
<path d="M237.511 168.462H237.51C237.51 168.462 231.065 168.436 229.841 168.431L229.841 168.431C228.468 168.504 227.563 168.421 225.721 168.767C227.377 169.16 228.685 169.035 230.168 169.092C231.498 169.086 262.888 169.629 272.744 169.48C277.573 169.48 297.768 168.41 304.437 168.41L304.436 168.036H286.72L237.511 168.462ZM270.052 168.913C272.958 168.851 275.691 168.678 277.767 168.74C275.381 168.904 272.778 168.933 270.052 168.913V168.913Z" fill="#393185"/>
<path d="M179.918 197.882C180.242 198.18 180.187 198.579 180.172 198.961C180.167 199.085 180.191 199.332 179.969 199.225C179.869 199.177 179.851 198.943 179.796 198.793C179.836 198.49 179.877 198.186 179.918 197.882Z" fill="#342D6C"/>
<path d="M96.6401 133.07C98.0128 125.773 99.3689 118.474 100.777 111.185C100.982 110.121 101.381 109.085 101.78 108.075C104.494 101.214 111.577 98.1781 118.188 101.019C122.319 102.795 124.57 106.456 124.143 111.13C123.882 113.989 123.313 116.819 122.565 119.596C122.506 119.545 122.46 119.48 122.431 119.406C122.403 119.332 122.393 119.252 122.402 119.173C122.361 119.531 122.327 119.889 122.488 120.23C121.728 124.41 121.015 128.6 120.187 132.765C119.821 134.607 119.681 134.595 118.338 133.247C117.023 131.927 115.679 130.635 114.414 129.265C113.79 128.59 113.403 128.496 112.711 129.225C110.064 132.011 107.38 134.761 104.635 137.441C103.843 138.215 103.967 138.619 104.652 139.327C106.248 140.975 107.761 142.71 109.361 144.468C103.597 146.284 97.5276 142.92 96.6191 137.556C96.8151 136.062 96.7784 134.566 96.6401 133.07Z" fill="#393185"/>
<path d="M96.6401 133.07C97.0423 134.567 97.0742 136.063 96.6191 137.556C96.3287 136.059 96.3987 134.564 96.6401 133.07Z" fill="#36306A"/>
<path d="M122.488 120.23C122.107 119.792 122.147 119.313 122.428 118.574C122.494 119.067 122.529 119.331 122.565 119.596L122.488 120.23Z" fill="#332D68"/>
<path d="M151.103 200.407C150.365 204.239 149.779 208.112 148.849 211.893C147.661 216.727 143.635 217.16 140.311 216.018C138.51 215.399 137.71 213.509 138.081 211.33C138.651 207.99 139.298 204.665 139.913 201.333C140.056 201.221 150.421 199.727 151.103 200.407Z" fill="#44BEE7"/>
<path d="M151.102 200.407C148.955 200.699 146.809 200.992 144.663 201.285C144.521 201.304 144.379 201.316 144.236 201.321C142.902 201.371 139.896 201.413 139.896 201.413C139.896 201.413 141.229 196.228 143.899 195.225C145.375 194.724 146.393 194.686 147.861 195.137C150.394 195.963 151.368 197.546 151.102 200.407Z" fill="#393185"/>
<path d="M246.093 214.187C245.203 214.203 244.315 214.084 243.457 213.834C240.905 213.101 239.468 211.179 239.409 208.417C239.359 206.081 240.037 203.865 240.464 201.61C241.127 198.108 241.713 194.583 242.557 191.127C243.756 186.222 247.005 183.892 251.587 184.376C255.59 184.799 258.108 187.922 257.429 192.009C256.571 197.169 255.593 202.316 254.435 207.412C253.374 212.079 250.622 214.199 246.093 214.187Z" fill="#FDFDFD"/>
<path d="M238.879 208.881V206.94C238.932 206.939 238.985 206.937 239.037 206.936V208.908C238.985 208.899 238.932 208.89 238.879 208.881Z" fill="#302873"/>
<path d="M363.46 203.691C364.474 204.746 365.729 206.685 365.473 208.789C365.214 210.925 364.071 212.355 362.18 213.148C361.724 213.339 361.249 213.479 360.775 213.625C360.432 213.73 360.08 213.8 359.725 213.834C356.948 214.104 354.17 214.074 351.392 213.904C351.225 213.894 351.063 213.848 350.915 213.769C350.766 213.691 350.635 213.581 350.529 213.448C350.423 213.314 350.345 213.159 350.299 212.993C350.253 212.826 350.241 212.651 350.263 212.48C350.625 209.646 351.111 206.839 351.866 204.086C351.945 203.794 352.107 203.535 352.331 203.341C352.556 203.148 352.831 203.029 353.121 203.003C356.044 202.741 358.97 202.894 361.894 203.052C362.427 203.081 362.857 203.243 363.46 203.691Z" fill="#FDFDFD"/>
<path d="M140.238 201.451C141.642 201.405 143.045 201.36 144.449 201.314C144.664 201.339 144.88 201.363 145.096 201.388C143.477 201.567 141.861 201.968 140.238 201.451Z" fill="#60B6EA"/>
</svg>
