<svg width="32" height="32" viewBox="0 0 32 32" fill="none" xmlns="http://www.w3.org/2000/svg">
<path d="M16.0023 1.33275e-07C7.16743 -0.00112877 -0.00451237 7.16969 2.13013e-06 15.9989C0.00451663 24.8382 7.15276 32 16 32C24.8811 32.0011 31.9921 24.8122 32 16.0158C32.0068 7.1663 24.8472 0.00112904 16.0023 1.33275e-07Z" fill="#40A8C4"/>
<path d="M16.9038 13.3412C16.9038 13.8653 16.8903 14.3903 16.9105 14.9134C16.9191 15.1342 16.9729 15.3607 17.0516 15.568C17.0977 15.6899 17.2244 15.7897 17.3328 15.8751C17.3741 15.9078 17.4826 15.8943 17.5373 15.8627C17.6592 15.7907 17.7868 15.711 17.8751 15.6045C18.1467 15.2733 18.4117 14.9364 18.6583 14.5871C19.2794 13.704 19.7314 12.7317 20.1288 11.7316C20.1797 11.6029 20.2661 11.4839 20.3563 11.3774C20.4791 11.2334 20.6673 11.2094 20.8391 11.2084C21.844 11.2008 22.849 11.1979 23.8539 11.2104C24.0344 11.2123 24.2302 11.2257 24.3933 11.3467C24.5095 11.433 24.5776 11.5329 24.5815 11.6816C24.5901 12.0541 24.4183 12.367 24.2609 12.6847C23.8961 13.4189 23.3711 14.0438 22.8864 14.6974C22.5284 15.1802 22.1723 15.664 21.8296 16.1573C21.4697 16.6756 21.4985 16.9473 21.9477 17.3878C22.3806 17.8121 22.8394 18.2114 23.255 18.651C23.6965 19.1184 24.1207 19.606 24.4356 20.1723C24.5066 20.3009 24.544 20.4564 24.5651 20.6033C24.6064 20.897 24.4375 21.1763 24.1668 21.2982C24.1332 21.3136 24.091 21.3126 24.0526 21.3126C23.0131 21.3136 21.9736 21.3129 20.9341 21.3107C20.8468 21.3107 20.7575 21.2771 20.6721 21.2483C20.0943 21.0573 19.6431 20.6925 19.2582 20.2309C18.8926 19.7922 18.524 19.3526 18.0556 19.0157C17.9692 18.9543 17.8559 18.9073 17.7513 18.8986C17.5267 18.8804 17.257 19.0915 17.1898 19.3133C17.1217 19.5398 17.0122 19.7519 17.0055 19.9976C16.9998 20.204 16.9623 20.4084 16.9345 20.6138C16.9019 20.8586 16.8462 21.1014 16.5976 21.2147C16.4661 21.2742 16.3116 21.3001 16.1657 21.3088C15.9106 21.3224 15.6549 21.323 15.3997 21.3107C15.058 21.2953 14.7115 21.2915 14.3756 21.2339C13.1326 21.0198 12.0192 20.5207 11.0814 19.6607C10.852 19.4496 10.6006 19.2566 10.4019 19.0196C10.0237 18.5694 9.65897 18.1058 9.32207 17.624C8.96021 17.1066 8.63099 16.5653 8.29697 16.0287C7.6059 14.9172 7.04247 13.7395 6.49729 12.5522C6.38691 12.3123 6.26693 12.0752 6.17767 11.8275C6.08456 11.5703 6.13831 11.4004 6.38499 11.2747C6.40803 11.2632 6.43106 11.2478 6.45602 11.2459C6.62591 11.2305 6.79676 11.2065 6.96761 11.2056C7.68268 11.2008 8.39776 11.2209 9.11187 11.1979C9.62634 11.1816 9.95652 11.4004 10.1523 11.8583C10.2186 12.0128 10.2819 12.1692 10.3491 12.3247C10.7042 13.1454 11.1381 13.9238 11.6189 14.6754C11.8052 14.9662 12.024 15.2378 12.2457 15.5027C12.3551 15.6333 12.5001 15.735 12.6383 15.8377C12.885 16.021 13.0664 15.8713 13.1672 15.6669C13.2583 15.4807 13.3207 15.2647 13.3332 15.0583C13.3687 14.445 13.3898 13.8297 13.3812 13.2155C13.3774 12.9025 13.3236 12.5839 13.2468 12.2796C13.1652 11.9581 12.9291 11.7517 12.6105 11.649C12.549 11.6289 12.4838 11.6183 12.4233 11.5972C12.2534 11.5386 12.2179 11.4436 12.334 11.3054C12.4214 11.2008 12.5308 11.1115 12.6421 11.0309C12.8168 10.9032 13.0117 10.8591 13.2353 10.8619C14.2268 10.8735 15.2193 10.8667 16.2108 10.8667C16.4824 10.8667 16.7416 11.0357 16.826 11.2977C16.8735 11.4504 16.8987 11.6091 16.9009 11.769C16.9095 12.2931 16.9047 12.8171 16.9047 13.3412C16.9028 13.3412 16.9038 13.3412 16.9038 13.3412Z" fill="white"/>
</svg>
