<svg width="130" height="130" viewBox="0 0 130 130" fill="none" xmlns="http://www.w3.org/2000/svg">
<path d="M130 65C130.017 76.1311 127.163 87.0784 121.712 96.7835C110.579 116.605 89.3538 130 65 130C60.2056 130.003 55.4256 129.477 50.7468 128.431C21.704 121.935 0 96.002 0 65C0 29.1019 29.1018 0 65 0C100.898 0 130 29.1019 130 65Z" fill="#F7AA00"/>
<path opacity="0.26" d="M121.711 96.7834C110.578 116.605 89.3535 130 64.9997 130C60.2054 130.003 55.4253 129.477 50.7465 128.431L27.5234 96.7925L39.9438 59.2995L58.0272 80.4894L88.7368 51.8608L96.7874 62.8286L121.711 96.7834Z" fill="black"/>
<path d="M98.0177 63.962C98.0177 67.0992 101.266 66.8857 101.266 70.4592C101.266 75.0072 97.7667 73.9328 97.368 75.6569C96.9505 77.4627 99.3172 77.6061 99.3172 81.1795C99.3172 85.4027 96.7306 85.6478 95.094 87.027C93.5576 88.3217 95.7896 93.8973 93.4697 95.4733C88.6082 98.7762 83.0961 99.0468 77.2268 99.0468C73.0036 99.0468 63.9076 98.3971 60.9838 98.3971C59.3595 98.3971 44.7409 95.1485 44.7409 95.1485C44.7409 90.6004 44.416 87.5436 44.416 83.1287C44.416 79.2304 44.7409 74.4682 44.7409 70.4592C44.7409 65.6324 45.0657 59.7388 45.0657 59.7388C45.0657 59.7388 47.9895 60.3885 48.6392 58.7643C50.2123 54.8316 51.183 53.0804 53.8369 49.6682C56.1109 46.7445 61.9584 40.5721 65.6943 38.1357C70.3201 35.1189 67.1561 22.0552 72.1915 21.8927C76.5627 21.7517 79.4801 23.031 79.9881 30.9888C80.4754 38.623 71.7042 49.6682 73.9782 51.6174C74.8675 52.3796 77.8604 51.7132 80.1503 51.9422C83.3991 52.2671 89.8963 51.6174 94.1194 52.2671C97.8631 52.843 99.642 53.5665 100.617 58.7643C101.463 63.2798 98.0177 63.2863 98.0177 63.962Z" fill="#40A8C4"/>
<path d="M27.5234 58.9534H38.6775C39.3379 58.9534 39.9713 59.2157 40.4382 59.6827C40.9052 60.1496 41.1675 60.783 41.1675 61.4434V94.4189C41.1675 95.0793 40.9052 95.7127 40.4382 96.1796C39.9713 96.6466 39.3379 96.9089 38.6775 96.9089H27.5234V58.9534Z" fill="#FEFEFE"/>
</svg>
