<svg width="204" height="204" viewBox="0 0 204 204" fill="none" xmlns="http://www.w3.org/2000/svg">
<path d="M204 102C204.027 119.467 199.547 136.646 190.994 151.876C189.59 154.376 188.086 156.808 186.482 159.172C168.139 186.224 137.145 204 102 204C95.5316 204.004 89.0774 203.394 82.7244 202.178C81.6878 201.981 80.6575 201.768 79.6335 201.538C34.0585 191.345 0 150.649 0 102C0 45.6675 45.6675 0 102 0C158.332 0 204 45.6675 204 102Z" fill="#F7AA00"/>
<path opacity="0.26" d="M186.48 159.172C168.137 186.224 137.143 204 101.998 204C95.5299 204.004 89.0757 203.394 82.7227 202.178L64.913 169.282L69.2207 129.182L59.3789 97.365L134.226 62.6494L186.48 159.172Z" fill="black"/>
<path d="M154.707 114.772C154.707 117.135 143.685 122.292 143.685 122.292C143.685 122.292 145.815 141.511 142.319 145.007C138.822 148.504 119.373 145.712 119.373 145.712L119.889 162.519C119.969 165.049 119.223 167.537 117.765 169.606C116.307 171.676 114.215 173.215 111.806 173.992C102.994 176.827 88.2746 179.546 72.987 173.587C70.5697 172.645 68.5348 170.925 67.2031 168.698C65.8714 166.472 65.3186 163.865 65.632 161.29L68.8202 135.118C69.2801 131.316 68.4715 127.47 66.5202 124.176C57.002 108.072 31.8531 56.2574 91.2059 40.3292C91.2059 40.3292 118.757 35.3066 135.104 59.898C137.247 63.1556 138.73 66.8015 139.47 70.6295C140.709 76.9123 142.353 83.1083 144.391 89.179C148.953 102.551 154.707 113.525 154.707 114.772Z" fill="#40A8C4"/>
<path d="M111.43 79.4957L111.258 72.5737L103.596 71.2084L107.969 64.77L103.134 59.8132L96.4409 64.5152L95.1333 56.4404H88.2092L86.6055 64.3037L80.2924 59.7395L75.1961 64.4269L79.6307 71.1502L71.7461 72.7938L72.0574 79.711L79.886 80.944L75.2721 87.3876L79.9828 92.4624L86.5399 88.0943L87.9513 95.8457L94.8741 95.7103L96.3381 87.7387L102.952 92.4236L108.003 87.6873L103.489 80.9853L111.43 79.4957ZM99.8654 79.4691L94.9143 84.2394L88.1593 84.2803L83.5243 79.4204L83.3118 72.6681L88.3427 67.9137L94.9706 68.0033L99.7899 72.8125L99.8654 79.4691Z" fill="white" stroke="#235784" stroke-width="4.03256" stroke-miterlimit="10"/>
<path d="M91.5866 88.8549C98.6071 88.8549 104.298 83.1637 104.298 76.1433C104.298 69.1228 98.6071 63.4316 91.5866 63.4316C84.5662 63.4316 78.875 69.1228 78.875 76.1433C78.875 83.1637 84.5662 88.8549 91.5866 88.8549Z" fill="white"/>
<path d="M91.5912 84.1102C95.9935 84.1102 99.5623 80.5414 99.5623 76.1391C99.5623 71.7368 95.9935 68.168 91.5912 68.168C87.1889 68.168 83.6201 71.7368 83.6201 76.1391C83.6201 80.5414 87.1889 84.1102 91.5912 84.1102Z" stroke="#235784" stroke-width="4.03256" stroke-miterlimit="10"/>
</svg>
