<svg width="204" height="204" viewBox="0 0 204 204" fill="none" xmlns="http://www.w3.org/2000/svg">
<path d="M204 102C204.027 119.467 199.547 136.646 190.994 151.876C190.697 152.405 190.394 152.934 190.088 153.455C188.947 155.405 187.745 157.311 186.482 159.172C168.139 186.224 137.145 204 102 204C100.757 204 99.5203 203.978 98.29 203.934C93.064 203.749 87.8601 203.162 82.7243 202.178C81.6877 201.981 80.6574 201.768 79.6335 201.538C34.0585 191.345 0 150.649 0 102C0 45.6675 45.6675 0 102 0C158.332 0 204 45.6675 204 102Z" fill="#F7AA00"/>
<path opacity="0.26" d="M190.088 153.455C188.947 155.405 187.745 157.311 186.482 159.172C168.139 186.223 137.145 204 102 204C100.757 204 99.5206 203.978 98.2903 203.933L53.1162 125.688L143.82 73.3188L190.088 153.455Z" fill="black"/>
<path d="M120.266 68.3101H53.2969V109.018H120.266V68.3101Z" fill="#40A8C4"/>
<path d="M120.266 109.018H53.2969V125.915H120.266V109.018Z" fill="#40A8C4"/>
<path d="M166.509 125.915H120.267V72.8921L141.178 73.0798C142.014 73.0842 142.839 73.2682 143.599 73.6192C144.388 73.9846 145.112 74.4768 145.742 75.0763C147.418 76.6876 149.483 79.4496 149.483 79.4496C149.483 79.4496 154.143 86.7774 155.467 89.2975C156.792 91.8175 158.215 94.5185 160.457 97.2975C162.654 100.022 163.869 98.8804 167.503 103.675C170.184 107.214 170.073 117.644 169.831 122.865C169.775 123.703 169.399 124.487 168.78 125.055C168.162 125.622 167.348 125.931 166.509 125.915Z" fill="#40A8C4"/>
<path d="M148.419 139.525C155.936 139.525 162.029 133.431 162.029 125.915C162.029 118.398 155.936 112.305 148.419 112.305C140.903 112.305 134.81 118.398 134.81 125.915C134.81 133.431 140.903 139.525 148.419 139.525Z" fill="white"/>
<path d="M148.419 135.607C153.772 135.607 158.111 131.268 158.111 125.915C158.111 120.562 153.772 116.223 148.419 116.223C143.067 116.223 138.728 120.562 138.728 125.915C138.728 131.268 143.067 135.607 148.419 135.607Z" fill="#3E9DBE"/>
<path d="M148.419 132.823C152.234 132.823 155.327 129.73 155.327 125.915C155.327 122.1 152.234 119.007 148.419 119.007C144.604 119.007 141.511 122.1 141.511 125.915C141.511 129.73 144.604 132.823 148.419 132.823Z" fill="white"/>
<path d="M148.418 128.851C150.04 128.851 151.354 127.536 151.354 125.915C151.354 124.293 150.04 122.979 148.418 122.979C146.797 122.979 145.482 124.293 145.482 125.915C145.482 127.536 146.797 128.851 148.418 128.851Z" fill="#26D18F" stroke="white" stroke-width="1.19767" stroke-miterlimit="10"/>
<path d="M74.4759 139.707C81.9924 139.707 88.0856 133.613 88.0856 126.097C88.0856 118.581 81.9924 112.487 74.4759 112.487C66.9595 112.487 60.8662 118.581 60.8662 126.097C60.8662 133.613 66.9595 139.707 74.4759 139.707Z" fill="white"/>
<path d="M74.4759 135.789C79.8286 135.789 84.1677 131.45 84.1677 126.097C84.1677 120.744 79.8286 116.405 74.4759 116.405C69.1233 116.405 64.7842 120.744 64.7842 126.097C64.7842 131.45 69.1233 135.789 74.4759 135.789Z" fill="#3E9DBE"/>
<path d="M74.4763 133.005C78.2915 133.005 81.3843 129.912 81.3843 126.097C81.3843 122.282 78.2915 119.189 74.4763 119.189C70.6612 119.189 67.5684 122.282 67.5684 126.097C67.5684 129.912 70.6612 133.005 74.4763 133.005Z" fill="white"/>
<path d="M74.476 129.033C76.0975 129.033 77.412 127.719 77.412 126.097C77.412 124.476 76.0975 123.161 74.476 123.161C72.8545 123.161 71.54 124.476 71.54 126.097C71.54 127.719 72.8545 129.033 74.476 129.033Z" fill="#26D18F" stroke="white" stroke-width="1.19767" stroke-miterlimit="10"/>
<path d="M147.591 98.0367L147.244 98.2908C145.855 99.3086 144.178 99.8573 142.456 99.8573H126.124C125.361 99.8573 124.63 99.5543 124.09 99.015C123.551 98.4757 123.248 97.7443 123.248 96.9816V81.3527C123.248 80.5124 123.575 79.7052 124.16 79.102C124.745 78.4988 125.542 78.147 126.382 78.1212L134.148 77.8827C136.315 77.8161 138.446 78.4508 140.224 79.6925C141.884 80.8516 143.29 82.3361 144.359 84.0557L146.159 86.9532L148.911 91.8732C149.485 92.8836 149.667 94.0698 149.424 95.2061C149.181 96.3425 148.529 97.3498 147.591 98.0367Z" fill="#FEFEFE"/>
<path d="M135.423 104.008H126.123C125.168 104.008 124.394 104.783 124.394 105.738V105.738C124.394 106.693 125.168 107.467 126.123 107.467H135.423C136.378 107.467 137.152 106.693 137.152 105.738V105.738C137.152 104.783 136.378 104.008 135.423 104.008Z" fill="#FEFEFE"/>
<path d="M114.255 115.737H89.0692C88.1141 115.737 87.3398 116.511 87.3398 117.466V117.466C87.3398 118.421 88.1141 119.196 89.0692 119.196H114.255C115.21 119.196 115.984 118.421 115.984 117.466C115.984 116.511 115.21 115.737 114.255 115.737Z" fill="#FEFEFE"/>
<path d="M53.7928 68.3101H21.0546C20.0995 68.3101 19.3252 69.0843 19.3252 70.0394C19.3252 70.9945 20.0995 71.7688 21.0546 71.7688H53.7928C54.7479 71.7688 55.5222 70.9945 55.5222 70.0394C55.5222 69.0843 54.7479 68.3101 53.7928 68.3101Z" fill="#FEFEFE"/>
<path d="M53.7932 76.1484H30.3436C29.3885 76.1484 28.6143 76.9227 28.6143 77.8778C28.6143 78.8329 29.3885 79.6072 30.3436 79.6072H53.7932C54.7483 79.6072 55.5225 78.8329 55.5225 77.8778C55.5225 76.9227 54.7483 76.1484 53.7932 76.1484Z" fill="#FEFEFE"/>
<path d="M53.7928 83.9868H34.1552C33.2 83.9868 32.4258 84.7611 32.4258 85.7162V85.7162C32.4258 86.6713 33.2 87.4456 34.1552 87.4456H53.7928C54.7479 87.4456 55.5222 86.6713 55.5222 85.7162C55.5222 84.7611 54.7479 83.9868 53.7928 83.9868Z" fill="#FEFEFE"/>
<path d="M53.7929 91.8247H39.1532C38.1981 91.8247 37.4238 92.599 37.4238 93.5541V93.5541C37.4238 94.5092 38.1981 95.2835 39.1532 95.2835H53.7929C54.748 95.2835 55.5223 94.5092 55.5223 93.5541C55.5223 92.599 54.748 91.8247 53.7929 91.8247Z" fill="#FEFEFE"/>
<path d="M53.793 99.6631H44.8104C43.8553 99.6631 43.0811 100.437 43.0811 101.392V101.392C43.0811 102.348 43.8553 103.122 44.8104 103.122H53.793C54.7481 103.122 55.5224 102.348 55.5224 101.392V101.392C55.5224 100.437 54.7481 99.6631 53.793 99.6631Z" fill="#FEFEFE"/>
<path d="M61.2302 115.737H57.2518C56.2967 115.737 55.5225 116.511 55.5225 117.466V117.466C55.5225 118.421 56.2967 119.196 57.2518 119.196H61.2302C62.1853 119.196 62.9596 118.421 62.9596 117.466V117.466C62.9596 116.511 62.1853 115.737 61.2302 115.737Z" fill="#FEFEFE"/>
</svg>
