<svg width="204" height="204" viewBox="0 0 204 204" fill="none" xmlns="http://www.w3.org/2000/svg">
<path d="M204 102C204.027 119.467 199.547 136.646 190.994 151.876C190.925 151.999 190.854 152.122 190.783 152.246C189.44 154.615 188.007 156.924 186.482 159.172C168.139 186.224 137.145 204 102 204C95.5316 204.004 89.0774 203.394 82.7244 202.178C81.6878 201.981 80.6575 201.768 79.6335 201.538C77.864 201.142 76.1126 200.7 74.3794 200.214C31.4658 188.173 0 148.761 0 102C0 45.6675 45.6675 0 102 0C158.332 0 204 45.6675 204 102Z" fill="#F7AA00"/>
<path d="M126.812 63.6704L120.085 70.3979L74.7588 115.724L51.3721 92.3374L79.5938 66.1257L103.426 40.2837L117.549 55.9677L126.812 63.6704Z" fill="#26D18F" stroke="white" stroke-width="1.18605" stroke-miterlimit="10"/>
<path d="M112.409 49.267C107.577 53.4102 98.9213 53.0859 95.0908 48.6187L101.36 42.3499L103 40.709L109.641 46.4995L112.409 49.267Z" fill="white"/>
<path d="M143.065 67.0481L136.337 73.7758L91.0117 119.102L67.625 95.7151L95.8465 69.5037L119.678 43.6616L133.802 59.3454L143.065 67.0481Z" fill="#26D18F" stroke="white" stroke-width="1.18605" stroke-miterlimit="10"/>
<path d="M128.662 52.6449C123.83 56.7881 115.174 56.4639 111.344 51.9966L117.613 45.7278L119.253 44.0869L125.894 49.8774L128.662 52.6449Z" fill="white"/>
<path opacity="0.26" d="M190.783 152.246C189.44 154.615 188.007 156.924 186.482 159.172C168.139 186.224 137.145 204 102 204C95.5316 204.004 89.0774 203.394 82.7243 202.178C81.6877 201.981 80.6575 201.768 79.6335 201.538C77.8639 201.142 76.1125 200.7 74.3793 200.214L49.5625 153.171L51.3724 133.323L150.253 75.4136L190.783 152.246Z" fill="black"/>
<path d="M52.4691 72.8623H144.434C146.472 72.8623 148.427 73.6718 149.868 75.1128C151.309 76.5538 152.118 78.5082 152.118 80.5461V148.239C152.118 149.14 151.941 150.033 151.596 150.865C151.251 151.698 150.745 152.455 150.108 153.092C149.471 153.729 148.714 154.235 147.881 154.58C147.049 154.925 146.156 155.102 145.255 155.102H52.4691C51.6335 155.102 50.8321 154.77 50.2412 154.179C49.6503 153.588 49.3184 152.787 49.3184 151.951V76.013C49.3184 75.5993 49.3999 75.1896 49.5582 74.8073C49.7165 74.425 49.9486 74.0777 50.2412 73.7851C50.5338 73.4926 50.8811 73.2605 51.2634 73.1021C51.6456 72.9438 52.0553 72.8623 52.4691 72.8623Z" fill="#3A97AD" stroke="#235784" stroke-width="0.237209" stroke-miterlimit="10"/>
<path d="M49.3184 82.8965H137.496C138.389 82.8965 139.246 83.2513 139.877 83.8829C140.509 84.5144 140.864 85.371 140.864 86.2642V141.184C140.864 142.077 140.509 142.934 139.877 143.565C139.246 144.197 138.389 144.552 137.496 144.552H49.3184" fill="#40A8C4"/>
<path d="M49.3184 82.8965H137.496C138.389 82.8965 139.246 83.2513 139.877 83.8829C140.509 84.5144 140.864 85.371 140.864 86.2642V141.184C140.864 142.077 140.509 142.934 139.877 143.565C139.246 144.197 138.389 144.552 137.496 144.552H49.3184" stroke="#235784" stroke-width="0.948837" stroke-miterlimit="10"/>
<path d="M152.738 103.248H122.027C120.954 103.248 120.084 104.118 120.084 105.192V119.814C120.084 120.888 120.954 121.758 122.027 121.758H152.738C153.812 121.758 154.682 120.888 154.682 119.814V105.192C154.682 104.118 153.812 103.248 152.738 103.248Z" fill="white" stroke="#235784" stroke-width="0.948837" stroke-miterlimit="10"/>
<path d="M130.504 116.828C132.893 116.828 134.829 114.891 134.829 112.503C134.829 110.114 132.893 108.178 130.504 108.178C128.116 108.178 126.18 110.114 126.18 112.503C126.18 114.891 128.116 116.828 130.504 116.828Z" fill="#235784"/>
</svg>
